<svg xmlns="http://www.w3.org/2000/svg" version="1.1" xmlnsXlink="http://www.w3.org/1999/xlink" xmlnsSvgjs="http://svgjs.dev/svgjs" viewBox="0 0 800 800" style=""><defs><linearGradient x1="50%" y1="0%" x2="50%" y2="100%" id="ggglitch-grad"><stop stop-color="hsl(230, 55%, 50%)" stop-opacity="1" offset="45%"></stop><stop stop-color="hsl(230, 55%, 70%)" stop-opacity="1" offset="100%"></stop></linearGradient><clipPath id="SvgjsClipPath1022"><path width="66.66666666666667" height="800" d="M0 0 L66.66666666666667 0 L66.66666666666667 800 L0 800 Z" class="CINgcbBm_0"></path><path width="66.66666666666667" height="800" d="M133.33333333333334 0 L200 0 L200 800 L133.33333333333334 800 Z" class="CINgcbBm_1"></path><path width="66.66666666666667" height="800" d="M266.6666666666667 0 L333.33333333333337 0 L333.33333333333337 800 L266.6666666666667 800 Z" class="CINgcbBm_2"></path><path width="66.66666666666667" height="800" d="M400 0 L466.6666666666667 0 L466.6666666666667 800 L400 800 Z" class="CINgcbBm_3"></path><path width="66.66666666666667" height="800" d="M533.3333333333334 0 L600 0 L600 800 L533.3333333333334 800 Z" class="CINgcbBm_4"></path><path width="66.66666666666667" height="800" d="M666.6666666666667 0 L733.3333333333334 0 L733.3333333333334 800 L666.6666666666667 800 Z" class="CINgcbBm_5"></path><path width="66.66666666666667" height="800" d="M800 0 L866.6666666666666 0 L866.6666666666666 800 L800 800 Z" class="CINgcbBm_6"></path><path width="66.66666666666667" height="800" d="M933.3333333333334 0 L1000 0 L1000 800 L933.3333333333334 800 Z" class="CINgcbBm_7"></path><path width="66.66666666666667" height="800" d="M1066.6666666666667 0 L1133.3333333333335 0 L1133.3333333333335 800 L1066.6666666666667 800 Z" class="CINgcbBm_8"></path><path width="66.66666666666667" height="800" d="M1200 0 L1266.6666666666667 0 L1266.6666666666667 800 L1200 800 Z" class="CINgcbBm_9"></path><path width="66.66666666666667" height="800" d="M1333.3333333333335 0 L1400.0000000000002 0 L1400.0000000000002 800 L1333.3333333333335 800 Z" class="CINgcbBm_10"></path><path width="66.66666666666667" height="800" d="M1466.6666666666667 0 L1533.3333333333335 0 L1533.3333333333335 800 L1466.6666666666667 800 Z" class="CINgcbBm_11"></path><path width="66.66666666666667" height="800" d="M1600 0 L1666.6666666666667 0 L1666.6666666666667 800 L1600 800 Z" class="CINgcbBm_12"></path></clipPath><clipPath id="SvgjsClipPath1023"><path width="66.66666666666667" height="800" d="M66.66666666666667 0 L133.33333333333334 0 L133.33333333333334 800 L66.66666666666667 800 Z" class="CINgcbBm_13"></path><path width="66.66666666666667" height="800" d="M200 0 L266.6666666666667 0 L266.6666666666667 800 L200 800 Z" class="CINgcbBm_14"></path><path width="66.66666666666667" height="800" d="M333.3333333333333 0 L400 0 L400 800 L333.3333333333333 800 Z" class="CINgcbBm_15"></path><path width="66.66666666666667" height="800" d="M466.6666666666667 0 L533.3333333333334 0 L533.3333333333334 800 L466.6666666666667 800 Z" class="CINgcbBm_16"></path><path width="66.66666666666667" height="800" d="M600.0000000000001 0 L666.6666666666667 0 L666.6666666666667 800 L600.0000000000001 800 Z" class="CINgcbBm_17"></path><path width="66.66666666666667" height="800" d="M733.3333333333334 0 L800 0 L800 800 L733.3333333333334 800 Z" class="CINgcbBm_18"></path><path width="66.66666666666667" height="800" d="M866.6666666666667 0 L933.3333333333334 0 L933.3333333333334 800 L866.6666666666667 800 Z" class="CINgcbBm_19"></path><path width="66.66666666666667" height="800" d="M1000.0000000000001 0 L1066.6666666666667 0 L1066.6666666666667 800 L1000.0000000000001 800 Z" class="CINgcbBm_20"></path><path width="66.66666666666667" height="800" d="M1133.3333333333333 0 L1200 0 L1200 800 L1133.3333333333333 800 Z" class="CINgcbBm_21"></path><path width="66.66666666666667" height="800" d="M1266.6666666666667 0 L1333.3333333333335 0 L1333.3333333333335 800 L1266.6666666666667 800 Z" class="CINgcbBm_22"></path><path width="66.66666666666667" height="800" d="M1400 0 L1466.6666666666667 0 L1466.6666666666667 800 L1400 800 Z" class="CINgcbBm_23"></path><path width="66.66666666666667" height="800" d="M1533.3333333333333 0 L1600 0 L1600 800 L1533.3333333333333 800 Z" class="CINgcbBm_24"></path></clipPath></defs><g stroke-width="45" stroke="url(#ggglitch-grad)" fill="none"><path fill="none" opacity="0.25" clip-path="url(&quot;#SvgjsClipPath1022&quot;)" d="M35,400A365,365 0,1,1 765,400A365,365 0,1,1 35,400" class="CINgcbBm_25"></path><path fill="none" opacity="0.25" clip-path="url(&quot;#SvgjsClipPath1022&quot;)" d="M135,400A265,265 0,1,1 665,400A265,265 0,1,1 135,400" class="CINgcbBm_26"></path><path fill="none" opacity="0.25" clip-path="url(&quot;#SvgjsClipPath1022&quot;)" d="M235,400A165,165 0,1,1 565,400A165,165 0,1,1 235,400" class="CINgcbBm_27"></path><path fill="none" opacity="0.25" clip-path="url(&quot;#SvgjsClipPath1022&quot;)" d="M335,400A65,65 0,1,1 465,400A65,65 0,1,1 335,400" class="CINgcbBm_28"></path><path fill="none" clip-path="url(&quot;#SvgjsClipPath1023&quot;)" d="M22.5,400A377.5,377.5 0,1,1 777.5,400A377.5,377.5 0,1,1 22.5,400" class="CINgcbBm_29"></path><path fill="none" clip-path="url(&quot;#SvgjsClipPath1023&quot;)" d="M122.5,400A277.5,277.5 0,1,1 677.5,400A277.5,277.5 0,1,1 122.5,400" class="CINgcbBm_30"></path><path fill="none" clip-path="url(&quot;#SvgjsClipPath1023&quot;)" d="M222.5,400A177.5,177.5 0,1,1 577.5,400A177.5,177.5 0,1,1 222.5,400" class="CINgcbBm_31"></path><path fill="none" clip-path="url(&quot;#SvgjsClipPath1023&quot;)" d="M322.5,400A77.5,77.5 0,1,1 477.5,400A77.5,77.5 0,1,1 322.5,400" class="CINgcbBm_32"></path></g><style data-made-with="vivus-instant">.CINgcbBm_0{stroke-dasharray:1734 1736;stroke-dashoffset:1735;animation:CINgcbBm_draw 2000ms linear 0ms forwards;}.CINgcbBm_1{stroke-dasharray:1734 1736;stroke-dashoffset:1735;animation:CINgcbBm_draw 2000ms linear 31ms forwards;}.CINgcbBm_2{stroke-dasharray:1734 1736;stroke-dashoffset:1735;animation:CINgcbBm_draw 2000ms linear 62ms forwards;}.CINgcbBm_3{stroke-dasharray:1734 1736;stroke-dashoffset:1735;animation:CINgcbBm_draw 2000ms linear 93ms forwards;}.CINgcbBm_4{stroke-dasharray:1734 1736;stroke-dashoffset:1735;animation:CINgcbBm_draw 2000ms linear 125ms forwards;}.CINgcbBm_5{stroke-dasharray:1734 1736;stroke-dashoffset:1735;animation:CINgcbBm_draw 2000ms linear 156ms forwards;}.CINgcbBm_6{stroke-dasharray:1734 1736;stroke-dashoffset:1735;animation:CINgcbBm_draw 2000ms linear 187ms forwards;}.CINgcbBm_7{stroke-dasharray:1734 1736;stroke-dashoffset:1735;animation:CINgcbBm_draw 2000ms linear 218ms forwards;}.CINgcbBm_8{stroke-dasharray:1734 1736;stroke-dashoffset:1735;animation:CINgcbBm_draw 2000ms linear 250ms forwards;}.CINgcbBm_9{stroke-dasharray:1734 1736;stroke-dashoffset:1735;animation:CINgcbBm_draw 2000ms linear 281ms forwards;}.CINgcbBm_10{stroke-dasharray:1734 1736;stroke-dashoffset:1735;animation:CINgcbBm_draw 2000ms linear 312ms forwards;}.CINgcbBm_11{stroke-dasharray:1734 1736;stroke-dashoffset:1735;animation:CINgcbBm_draw 2000ms linear 343ms forwards;}.CINgcbBm_12{stroke-dasharray:1734 1736;stroke-dashoffset:1735;animation:CINgcbBm_draw 2000ms linear 375ms forwards;}.CINgcbBm_13{stroke-dasharray:1734 1736;stroke-dashoffset:1735;animation:CINgcbBm_draw 2000ms linear 406ms forwards;}.CINgcbBm_14{stroke-dasharray:1734 1736;stroke-dashoffset:1735;animation:CINgcbBm_draw 2000ms linear 437ms forwards;}.CINgcbBm_15{stroke-dasharray:1734 1736;stroke-dashoffset:1735;animation:CINgcbBm_draw 2000ms linear 468ms forwards;}.CINgcbBm_16{stroke-dasharray:1734 1736;stroke-dashoffset:1735;animation:CINgcbBm_draw 2000ms linear 500ms forwards;}.CINgcbBm_17{stroke-dasharray:1734 1736;stroke-dashoffset:1735;animation:CINgcbBm_draw 2000ms linear 531ms forwards;}.CINgcbBm_18{stroke-dasharray:1734 1736;stroke-dashoffset:1735;animation:CINgcbBm_draw 2000ms linear 562ms forwards;}.CINgcbBm_19{stroke-dasharray:1734 1736;stroke-dashoffset:1735;animation:CINgcbBm_draw 2000ms linear 593ms forwards;}.CINgcbBm_20{stroke-dasharray:1734 1736;stroke-dashoffset:1735;animation:CINgcbBm_draw 2000ms linear 625ms forwards;}.CINgcbBm_21{stroke-dasharray:1734 1736;stroke-dashoffset:1735;animation:CINgcbBm_draw 2000ms linear 656ms forwards;}.CINgcbBm_22{stroke-dasharray:1734 1736;stroke-dashoffset:1735;animation:CINgcbBm_draw 2000ms linear 687ms forwards;}.CINgcbBm_23{stroke-dasharray:1734 1736;stroke-dashoffset:1735;animation:CINgcbBm_draw 2000ms linear 718ms forwards;}.CINgcbBm_24{stroke-dasharray:1734 1736;stroke-dashoffset:1735;animation:CINgcbBm_draw 2000ms linear 750ms forwards;}.CINgcbBm_25{stroke-dasharray:2294 2296;stroke-dashoffset:2295;animation:CINgcbBm_draw 2000ms linear 781ms forwards;}.CINgcbBm_26{stroke-dasharray:1666 1668;stroke-dashoffset:1667;animation:CINgcbBm_draw 2000ms linear 812ms forwards;}.CINgcbBm_27{stroke-dasharray:1038 1040;stroke-dashoffset:1039;animation:CINgcbBm_draw 2000ms linear 843ms forwards;}.CINgcbBm_28{stroke-dasharray:409 411;stroke-dashoffset:410;animation:CINgcbBm_draw 2000ms linear 875ms forwards;}.CINgcbBm_29{stroke-dasharray:2373 2375;stroke-dashoffset:2374;animation:CINgcbBm_draw 2000ms linear 906ms forwards;}.CINgcbBm_30{stroke-dasharray:1744 1746;stroke-dashoffset:1745;animation:CINgcbBm_draw 2000ms linear 937ms forwards;}.CINgcbBm_31{stroke-dasharray:1116 1118;stroke-dashoffset:1117;animation:CINgcbBm_draw 2000ms linear 968ms forwards;}.CINgcbBm_32{stroke-dasharray:488 490;stroke-dashoffset:489;animation:CINgcbBm_draw 2000ms linear 1000ms forwards;}@keyframes CINgcbBm_draw{100%{stroke-dashoffset:0;}}@keyframes CINgcbBm_fade{0%{stroke-opacity:1;}94.44444444444444%{stroke-opacity:1;}100%{stroke-opacity:0;}}</style></svg>