<svg className="absolute top-40 left-1/4" width="841.2" height="56.475" viewBox="0 0 841.2 56.475" xmlns="http://www.w3.org/2000/svg" style=""><g id="svgGroup" stroke-linecap="round" fill-rule="nonzero" font-size="9pt" stroke="#facc15" stroke-width="0.55mm" fill="none" style="stroke:#facc15;stroke-width:0.55mm;fill:none"><path d="M 11.1 56.025 L 0 56.025 L 0 13.2 A 19.978 19.978 0 0 1 0.158 10.613 Q 0.338 9.243 0.72 8.089 A 10.462 10.462 0 0 1 1.125 7.05 Q 2.25 4.575 4.125 3.15 Q 6 1.725 8.25 1.125 A 17.396 17.396 0 0 1 11.994 0.54 A 15.909 15.909 0 0 1 12.675 0.525 Q 15.375 0.525 19.388 0.563 Q 23.4 0.6 27.938 0.825 A 157.627 157.627 0 0 1 34.554 1.289 A 141.271 141.271 0 0 1 36.675 1.5 L 36.675 10.8 L 15.75 10.8 A 6.944 6.944 0 0 0 14.418 10.92 Q 13.657 11.068 13.071 11.403 A 3.442 3.442 0 0 0 12.263 12.038 A 4.197 4.197 0 0 0 11.203 14.167 A 5.984 5.984 0 0 0 11.1 15.3 L 11.1 24.75 L 33.075 25.35 L 33.075 34.125 L 11.1 34.725 L 11.1 56.025 Z" id="0" class="DqUMNHQr_0"></path><path d="M 54.825 56.025 L 43.725 56.025 L 43.725 0.525 L 66.675 0.525 Q 69.975 0.525 72.825 1.313 Q 75.675 2.1 77.85 4.05 A 11.111 11.111 0 0 1 79.949 6.632 Q 80.702 7.887 81.263 9.45 A 18.392 18.392 0 0 1 82.017 12.312 Q 82.289 13.782 82.408 15.493 A 40.538 40.538 0 0 1 82.5 18.3 Q 82.5 21.303 82.038 23.613 A 16.99 16.99 0 0 1 81.75 24.825 Q 81 27.525 79.763 29.25 A 11.761 11.761 0 0 1 78.129 31.102 A 9.95 9.95 0 0 1 76.95 32.025 Q 75.375 33.075 73.725 33.75 L 84.075 56.025 L 72.75 56.025 L 63.825 35.475 A 51.965 51.965 0 0 1 62.987 35.468 Q 62.559 35.461 62.084 35.447 A 88.847 88.847 0 0 1 61.763 35.438 Q 60.6 35.4 59.4 35.4 L 57 35.4 A 33.245 33.245 0 0 1 55.856 35.381 A 24.465 24.465 0 0 1 54.825 35.325 L 54.825 56.025 Z M 54.825 10.5 L 54.825 26.55 L 64.725 26.55 A 10.316 10.316 0 0 0 66.192 26.45 A 7.893 7.893 0 0 0 67.425 26.175 Q 68.625 25.8 69.525 24.863 A 5.247 5.247 0 0 0 70.354 23.707 Q 70.64 23.176 70.853 22.536 A 9.089 9.089 0 0 0 70.913 22.35 A 9.474 9.474 0 0 0 71.21 21.042 Q 71.4 19.847 71.4 18.3 Q 71.4 15.975 70.913 14.438 Q 70.425 12.9 69.525 12.038 Q 68.625 11.175 67.425 10.838 A 8.823 8.823 0 0 0 65.991 10.566 A 11.695 11.695 0 0 0 64.725 10.5 L 54.825 10.5 Z" id="1" class="DqUMNHQr_1"></path><path d="M 107.485 56.267 Q 105.165 56.05 103.143 55.605 A 28.827 28.827 0 0 1 102.225 55.388 Q 97.95 54.3 95.063 51.338 A 14.228 14.228 0 0 1 92.746 48.122 Q 91.91 46.567 91.28 44.647 A 28.961 28.961 0 0 1 90.75 42.825 A 38.22 38.22 0 0 1 89.939 38.611 Q 89.325 34.207 89.325 28.35 A 89.29 89.29 0 0 1 89.498 22.609 Q 89.673 19.897 90.026 17.591 A 36.937 36.937 0 0 1 90.788 13.838 A 27.556 27.556 0 0 1 91.957 10.302 Q 93.23 7.219 95.1 5.25 A 14.668 14.668 0 0 1 101.696 1.273 A 17.628 17.628 0 0 1 102.225 1.125 A 32.159 32.159 0 0 1 106.546 0.318 Q 108.68 0.06 111.079 0.011 A 55.636 55.636 0 0 1 112.2 0 Q 117.9 0 122.175 1.125 A 15.372 15.372 0 0 1 127.172 3.409 A 14.287 14.287 0 0 1 129.3 5.25 A 14.447 14.447 0 0 1 131.521 8.37 Q 132.343 9.896 132.971 11.774 A 29.532 29.532 0 0 1 133.575 13.838 Q 134.544 17.635 134.854 22.975 A 92.92 92.92 0 0 1 135 28.35 Q 135 34.207 134.386 38.611 A 38.22 38.22 0 0 1 133.575 42.825 A 26.734 26.734 0 0 1 132.427 46.335 Q 131.17 49.394 129.3 51.338 A 14.516 14.516 0 0 1 122.834 55.206 A 17.524 17.524 0 0 1 122.175 55.388 Q 117.9 56.475 112.2 56.475 A 50.611 50.611 0 0 1 107.485 56.267 Z M 116.693 46.064 A 11.96 11.96 0 0 0 117.825 45.75 Q 120.075 45 121.388 43.088 Q 122.7 41.175 123.3 37.613 A 36.289 36.289 0 0 0 123.642 34.911 Q 123.771 33.501 123.836 31.861 A 89.475 89.475 0 0 0 123.9 28.35 A 98.817 98.817 0 0 0 123.842 24.835 Q 123.713 21.225 123.3 18.75 A 22.18 22.18 0 0 0 122.856 16.665 Q 122.582 15.642 122.229 14.806 A 8.844 8.844 0 0 0 121.388 13.238 Q 120.075 11.325 117.825 10.65 A 14.194 14.194 0 0 0 115.896 10.226 Q 114.878 10.07 113.699 10.011 A 30.021 30.021 0 0 0 112.2 9.975 A 25.925 25.925 0 0 0 109.919 10.07 Q 108.746 10.174 107.737 10.391 A 13.194 13.194 0 0 0 106.725 10.65 Q 104.475 11.325 103.088 13.238 A 8.836 8.836 0 0 0 102.152 14.909 Q 101.461 16.5 101.063 18.75 Q 100.454 22.186 100.426 27.807 A 109.87 109.87 0 0 0 100.425 28.35 A 96.334 96.334 0 0 0 100.48 31.704 Q 100.54 33.43 100.667 34.905 A 38.615 38.615 0 0 0 100.988 37.613 Q 101.55 41.175 102.9 43.088 Q 104.25 45 106.538 45.75 A 13.551 13.551 0 0 0 108.576 46.236 Q 109.639 46.409 110.868 46.469 A 27.495 27.495 0 0 0 112.2 46.5 Q 114.773 46.5 116.693 46.064 Z" id="2" class="DqUMNHQr_2"></path><path d="M 154.725 56.025 L 143.55 56.025 L 143.55 0.525 L 152.475 0.525 L 175.725 37.125 L 175.725 0.525 L 186.825 0.525 L 186.825 56.025 L 177.9 56.025 L 154.725 19.425 L 154.725 56.025 Z" id="3" class="DqUMNHQr_3"></path><path d="M 218.7 56.025 L 207.6 56.025 L 207.6 10.5 L 192.375 10.5 L 192.375 0.525 L 234 0.525 L 234 10.5 L 218.7 10.5 L 218.7 56.025 Z" id="4" class="DqUMNHQr_4"></path><path d="M 259.35 44.175 L 259.35 13.2 A 19.978 19.978 0 0 1 259.508 10.613 Q 259.688 9.243 260.07 8.089 A 10.462 10.462 0 0 1 260.475 7.05 Q 261.6 4.575 263.475 3.15 Q 265.35 1.725 267.6 1.125 A 17.396 17.396 0 0 1 271.344 0.54 A 15.909 15.909 0 0 1 272.025 0.525 Q 276.859 0.525 280.724 0.636 A 202.855 202.855 0 0 1 281.963 0.675 A 475.546 475.546 0 0 1 285.938 0.829 Q 287.946 0.916 289.725 1.013 Q 293.175 1.2 296.025 1.5 L 296.025 10.8 L 275.325 10.8 A 7.719 7.719 0 0 0 273.912 10.921 Q 273.122 11.069 272.499 11.395 A 3.899 3.899 0 0 0 271.725 11.925 A 3.515 3.515 0 0 0 270.712 13.515 Q 270.524 14.095 270.471 14.802 A 7.686 7.686 0 0 0 270.45 15.375 L 270.45 23.4 L 292.425 24 L 292.425 32.775 L 270.45 33.375 L 270.45 41.025 Q 270.45 42.294 270.72 43.198 A 3.926 3.926 0 0 0 271.088 44.063 A 3.635 3.635 0 0 0 271.863 45.003 A 3.207 3.207 0 0 0 272.813 45.563 Q 273.9 45.975 275.1 45.975 L 296.025 45.975 L 296.025 55.275 Q 292.725 55.65 288.713 55.875 Q 284.7 56.1 280.613 56.25 A 223.015 223.015 0 0 1 275.187 56.386 A 189.716 189.716 0 0 1 272.85 56.4 A 23.152 23.152 0 0 1 271.175 56.336 Q 270.318 56.273 269.369 56.151 A 40.55 40.55 0 0 1 268.725 56.063 Q 266.4 55.725 264.263 54.525 A 8.787 8.787 0 0 1 261.577 52.161 A 11.257 11.257 0 0 1 260.738 50.888 Q 259.72 49.1 259.449 46.324 A 22.134 22.134 0 0 1 259.35 44.175 Z" id="6" class="DqUMNHQr_5"></path><path d="M 315.675 56.025 L 304.5 56.025 L 304.5 0.525 L 313.425 0.525 L 336.675 37.125 L 336.675 0.525 L 347.775 0.525 L 347.775 56.025 L 338.85 56.025 L 315.675 19.425 L 315.675 56.025 Z" id="7" class="DqUMNHQr_6"></path><path d="M 380.4 56.025 L 356.925 56.025 L 356.925 0.525 L 380.4 0.525 Q 385.009 0.525 388.359 1.859 A 14.395 14.395 0 0 1 389.775 2.513 Q 393.525 4.5 395.738 8.213 A 23.061 23.061 0 0 1 397.857 12.969 A 30.549 30.549 0 0 1 398.85 17.025 A 57.984 57.984 0 0 1 399.578 23.095 A 75.1 75.1 0 0 1 399.75 28.275 Q 399.75 35.21 398.58 40.381 A 31.774 31.774 0 0 1 397.613 43.8 Q 395.557 49.716 391.523 52.752 A 14.584 14.584 0 0 1 391.2 52.988 Q 386.925 56.025 380.4 56.025 Z M 368.025 10.5 L 368.025 46.05 L 379.275 46.05 A 9.706 9.706 0 0 0 381.571 45.793 A 6.701 6.701 0 0 0 384.75 44.063 Q 386.345 42.497 387.265 39.699 A 19.303 19.303 0 0 0 387.713 38.1 A 30.9 30.9 0 0 0 388.284 34.855 Q 388.65 31.931 388.65 28.275 Q 388.65 24.647 388.379 21.882 A 34.754 34.754 0 0 0 388.05 19.388 Q 387.652 17.072 387.005 15.434 A 10.236 10.236 0 0 0 386.288 13.95 A 7.566 7.566 0 0 0 385.2 12.518 A 5.667 5.667 0 0 0 383.363 11.25 A 9.135 9.135 0 0 0 381.202 10.644 A 12.359 12.359 0 0 0 379.275 10.5 L 368.025 10.5 Z" id="8" class="DqUMNHQr_7"></path><path d="M 450.75 56.025 L 427.275 56.025 L 427.275 0.525 L 450.75 0.525 Q 455.359 0.525 458.709 1.859 A 14.395 14.395 0 0 1 460.125 2.513 Q 463.875 4.5 466.088 8.213 A 23.061 23.061 0 0 1 468.207 12.969 A 30.549 30.549 0 0 1 469.2 17.025 A 57.984 57.984 0 0 1 469.928 23.095 A 75.1 75.1 0 0 1 470.1 28.275 Q 470.1 35.21 468.93 40.381 A 31.774 31.774 0 0 1 467.963 43.8 Q 465.907 49.716 461.873 52.752 A 14.584 14.584 0 0 1 461.55 52.988 Q 457.275 56.025 450.75 56.025 Z M 438.375 10.5 L 438.375 46.05 L 449.625 46.05 A 9.706 9.706 0 0 0 451.921 45.793 A 6.701 6.701 0 0 0 455.1 44.063 Q 456.695 42.497 457.615 39.699 A 19.303 19.303 0 0 0 458.063 38.1 A 30.9 30.9 0 0 0 458.634 34.855 Q 459 31.931 459 28.275 Q 459 24.647 458.729 21.882 A 34.754 34.754 0 0 0 458.4 19.388 Q 458.002 17.072 457.355 15.434 A 10.236 10.236 0 0 0 456.638 13.95 A 7.566 7.566 0 0 0 455.55 12.518 A 5.667 5.667 0 0 0 453.713 11.25 A 9.135 9.135 0 0 0 451.552 10.644 A 12.359 12.359 0 0 0 449.625 10.5 L 438.375 10.5 Z" id="10" class="DqUMNHQr_8"></path><path d="M 478.275 44.175 L 478.275 13.2 A 19.978 19.978 0 0 1 478.433 10.613 Q 478.613 9.243 478.995 8.089 A 10.462 10.462 0 0 1 479.4 7.05 Q 480.525 4.575 482.4 3.15 Q 484.275 1.725 486.525 1.125 A 17.396 17.396 0 0 1 490.269 0.54 A 15.909 15.909 0 0 1 490.95 0.525 Q 495.784 0.525 499.649 0.636 A 202.855 202.855 0 0 1 500.888 0.675 A 475.546 475.546 0 0 1 504.863 0.829 Q 506.871 0.916 508.65 1.013 Q 512.1 1.2 514.95 1.5 L 514.95 10.8 L 494.25 10.8 A 7.719 7.719 0 0 0 492.837 10.921 Q 492.047 11.069 491.424 11.395 A 3.899 3.899 0 0 0 490.65 11.925 A 3.515 3.515 0 0 0 489.637 13.515 Q 489.449 14.095 489.396 14.802 A 7.686 7.686 0 0 0 489.375 15.375 L 489.375 23.4 L 511.35 24 L 511.35 32.775 L 489.375 33.375 L 489.375 41.025 Q 489.375 42.294 489.645 43.198 A 3.926 3.926 0 0 0 490.013 44.063 A 3.635 3.635 0 0 0 490.788 45.003 A 3.207 3.207 0 0 0 491.738 45.563 Q 492.825 45.975 494.025 45.975 L 514.95 45.975 L 514.95 55.275 Q 511.65 55.65 507.638 55.875 Q 503.625 56.1 499.538 56.25 A 223.015 223.015 0 0 1 494.112 56.386 A 189.716 189.716 0 0 1 491.775 56.4 A 23.152 23.152 0 0 1 490.1 56.336 Q 489.243 56.273 488.294 56.151 A 40.55 40.55 0 0 1 487.65 56.063 Q 485.325 55.725 483.188 54.525 A 8.787 8.787 0 0 1 480.502 52.161 A 11.257 11.257 0 0 1 479.663 50.888 Q 478.645 49.1 478.374 46.324 A 22.134 22.134 0 0 1 478.275 44.175 Z" id="11" class="DqUMNHQr_9"></path><path d="M 550.95 56.025 L 536.925 56.025 L 519.525 0.525 L 531 0.525 L 543.975 44.025 L 556.95 0.525 L 568.35 0.525 L 550.95 56.025 Z" id="12" class="DqUMNHQr_10"></path><path d="M 572.55 44.175 L 572.55 13.2 A 19.978 19.978 0 0 1 572.708 10.613 Q 572.888 9.243 573.27 8.089 A 10.462 10.462 0 0 1 573.675 7.05 Q 574.8 4.575 576.675 3.15 Q 578.55 1.725 580.8 1.125 A 17.396 17.396 0 0 1 584.544 0.54 A 15.909 15.909 0 0 1 585.225 0.525 Q 590.059 0.525 593.924 0.636 A 202.855 202.855 0 0 1 595.163 0.675 A 475.546 475.546 0 0 1 599.138 0.829 Q 601.146 0.916 602.925 1.013 Q 606.375 1.2 609.225 1.5 L 609.225 10.8 L 588.525 10.8 A 7.719 7.719 0 0 0 587.112 10.921 Q 586.322 11.069 585.699 11.395 A 3.899 3.899 0 0 0 584.925 11.925 A 3.515 3.515 0 0 0 583.912 13.515 Q 583.724 14.095 583.671 14.802 A 7.686 7.686 0 0 0 583.65 15.375 L 583.65 23.4 L 605.625 24 L 605.625 32.775 L 583.65 33.375 L 583.65 41.025 Q 583.65 42.294 583.92 43.198 A 3.926 3.926 0 0 0 584.288 44.063 A 3.635 3.635 0 0 0 585.063 45.003 A 3.207 3.207 0 0 0 586.013 45.563 Q 587.1 45.975 588.3 45.975 L 609.225 45.975 L 609.225 55.275 Q 605.925 55.65 601.913 55.875 Q 597.9 56.1 593.813 56.25 A 223.015 223.015 0 0 1 588.387 56.386 A 189.716 189.716 0 0 1 586.05 56.4 A 23.152 23.152 0 0 1 584.375 56.336 Q 583.518 56.273 582.569 56.151 A 40.55 40.55 0 0 1 581.925 56.063 Q 579.6 55.725 577.463 54.525 A 8.787 8.787 0 0 1 574.777 52.161 A 11.257 11.257 0 0 1 573.938 50.888 Q 572.92 49.1 572.649 46.324 A 22.134 22.134 0 0 1 572.55 44.175 Z" id="13" class="DqUMNHQr_11"></path><path d="M 650.925 56.025 L 630.45 56.025 Q 626.823 56.025 624.141 55.08 A 12.738 12.738 0 0 1 623.213 54.713 Q 620.25 53.4 618.788 50.513 Q 617.678 48.322 617.41 45.073 A 26.49 26.49 0 0 1 617.325 42.9 L 617.325 0.525 L 628.425 0.525 L 628.425 41.1 Q 628.425 42.42 628.768 43.377 A 4.151 4.151 0 0 0 629.063 44.025 Q 629.7 45.15 630.825 45.563 Q 631.95 45.975 633.375 45.975 L 650.925 45.975 L 650.925 56.025 Z" id="14" class="DqUMNHQr_12"></path><path d="M 673.81 56.267 Q 671.49 56.05 669.468 55.605 A 28.827 28.827 0 0 1 668.55 55.388 Q 664.275 54.3 661.388 51.338 A 14.228 14.228 0 0 1 659.071 48.122 Q 658.235 46.567 657.605 44.647 A 28.961 28.961 0 0 1 657.075 42.825 A 38.22 38.22 0 0 1 656.264 38.611 Q 655.65 34.207 655.65 28.35 A 89.29 89.29 0 0 1 655.823 22.609 Q 655.998 19.897 656.351 17.591 A 36.937 36.937 0 0 1 657.113 13.838 A 27.556 27.556 0 0 1 658.282 10.302 Q 659.555 7.219 661.425 5.25 A 14.668 14.668 0 0 1 668.021 1.273 A 17.628 17.628 0 0 1 668.55 1.125 A 32.159 32.159 0 0 1 672.871 0.318 Q 675.005 0.06 677.404 0.011 A 55.636 55.636 0 0 1 678.525 0 Q 684.225 0 688.5 1.125 A 15.372 15.372 0 0 1 693.497 3.409 A 14.287 14.287 0 0 1 695.625 5.25 A 14.447 14.447 0 0 1 697.846 8.37 Q 698.668 9.896 699.296 11.774 A 29.532 29.532 0 0 1 699.9 13.838 Q 700.869 17.635 701.179 22.975 A 92.92 92.92 0 0 1 701.325 28.35 Q 701.325 34.207 700.711 38.611 A 38.22 38.22 0 0 1 699.9 42.825 A 26.734 26.734 0 0 1 698.752 46.335 Q 697.495 49.394 695.625 51.338 A 14.516 14.516 0 0 1 689.159 55.206 A 17.524 17.524 0 0 1 688.5 55.388 Q 684.225 56.475 678.525 56.475 A 50.611 50.611 0 0 1 673.81 56.267 Z M 683.018 46.064 A 11.96 11.96 0 0 0 684.15 45.75 Q 686.4 45 687.713 43.088 Q 689.025 41.175 689.625 37.613 A 36.289 36.289 0 0 0 689.967 34.911 Q 690.096 33.501 690.161 31.861 A 89.475 89.475 0 0 0 690.225 28.35 A 98.817 98.817 0 0 0 690.167 24.835 Q 690.038 21.225 689.625 18.75 A 22.18 22.18 0 0 0 689.181 16.665 Q 688.907 15.642 688.554 14.806 A 8.844 8.844 0 0 0 687.713 13.238 Q 686.4 11.325 684.15 10.65 A 14.194 14.194 0 0 0 682.221 10.226 Q 681.203 10.07 680.024 10.011 A 30.021 30.021 0 0 0 678.525 9.975 A 25.925 25.925 0 0 0 676.244 10.07 Q 675.071 10.174 674.062 10.391 A 13.194 13.194 0 0 0 673.05 10.65 Q 670.8 11.325 669.413 13.238 A 8.836 8.836 0 0 0 668.477 14.909 Q 667.786 16.5 667.388 18.75 Q 666.779 22.186 666.751 27.807 A 109.87 109.87 0 0 0 666.75 28.35 A 96.334 96.334 0 0 0 666.805 31.704 Q 666.865 33.43 666.992 34.905 A 38.615 38.615 0 0 0 667.313 37.613 Q 667.875 41.175 669.225 43.088 Q 670.575 45 672.863 45.75 A 13.551 13.551 0 0 0 674.901 46.236 Q 675.964 46.409 677.193 46.469 A 27.495 27.495 0 0 0 678.525 46.5 Q 681.098 46.5 683.018 46.064 Z" id="15" class="DqUMNHQr_13"></path><path d="M 720.6 56.025 L 709.5 56.025 L 709.5 0.525 L 732.9 0.525 Q 735.6 0.525 738.413 1.163 Q 741.225 1.8 743.588 3.713 A 10.49 10.49 0 0 1 745.605 5.926 Q 746.636 7.418 747.413 9.45 A 19.039 19.039 0 0 1 748.289 12.593 Q 748.61 14.231 748.755 16.166 A 45.675 45.675 0 0 1 748.875 19.575 Q 748.875 23.937 748.174 27.149 A 19.066 19.066 0 0 1 747.413 29.775 Q 745.95 33.675 743.625 35.7 A 12.938 12.938 0 0 1 740.742 37.624 A 11.176 11.176 0 0 1 738.6 38.4 A 22.358 22.358 0 0 1 734.675 39.03 A 19.747 19.747 0 0 1 733.35 39.075 A 38.843 38.843 0 0 1 732.274 39.059 Q 731.8 39.046 731.281 39.022 A 68.43 68.43 0 0 1 730.2 38.963 Q 728.4 38.85 726.563 38.625 Q 724.725 38.4 723.15 38.213 A 129.053 129.053 0 0 1 722.4 38.121 Q 721.482 38.006 720.812 37.907 A 39.487 39.487 0 0 1 720.6 37.875 L 720.6 56.025 Z M 720.6 10.5 L 720.6 29.1 L 731.625 29.1 A 6.779 6.779 0 0 0 733.277 28.908 A 5.275 5.275 0 0 0 734.963 28.163 Q 736.232 27.305 736.905 25.505 A 8.727 8.727 0 0 0 737.025 25.163 A 11.396 11.396 0 0 0 737.409 23.581 Q 737.7 21.914 737.7 19.65 A 26.228 26.228 0 0 0 737.631 17.676 Q 737.478 15.658 736.99 14.293 A 8.25 8.25 0 0 0 736.988 14.288 Q 736.275 12.3 734.963 11.4 A 5.117 5.117 0 0 0 732.667 10.55 A 6.577 6.577 0 0 0 731.85 10.5 L 720.6 10.5 Z" id="16" class="DqUMNHQr_14"></path><path d="M 756.075 44.175 L 756.075 13.2 A 19.978 19.978 0 0 1 756.233 10.613 Q 756.413 9.243 756.795 8.089 A 10.462 10.462 0 0 1 757.2 7.05 Q 758.325 4.575 760.2 3.15 Q 762.075 1.725 764.325 1.125 A 17.396 17.396 0 0 1 768.069 0.54 A 15.909 15.909 0 0 1 768.75 0.525 Q 773.584 0.525 777.449 0.636 A 202.855 202.855 0 0 1 778.688 0.675 A 475.546 475.546 0 0 1 782.663 0.829 Q 784.671 0.916 786.45 1.013 Q 789.9 1.2 792.75 1.5 L 792.75 10.8 L 772.05 10.8 A 7.719 7.719 0 0 0 770.637 10.921 Q 769.847 11.069 769.224 11.395 A 3.899 3.899 0 0 0 768.45 11.925 A 3.515 3.515 0 0 0 767.437 13.515 Q 767.249 14.095 767.196 14.802 A 7.686 7.686 0 0 0 767.175 15.375 L 767.175 23.4 L 789.15 24 L 789.15 32.775 L 767.175 33.375 L 767.175 41.025 Q 767.175 42.294 767.445 43.198 A 3.926 3.926 0 0 0 767.813 44.063 A 3.635 3.635 0 0 0 768.588 45.003 A 3.207 3.207 0 0 0 769.538 45.563 Q 770.625 45.975 771.825 45.975 L 792.75 45.975 L 792.75 55.275 Q 789.45 55.65 785.438 55.875 Q 781.425 56.1 777.338 56.25 A 223.015 223.015 0 0 1 771.912 56.386 A 189.716 189.716 0 0 1 769.575 56.4 A 23.152 23.152 0 0 1 767.9 56.336 Q 767.043 56.273 766.094 56.151 A 40.55 40.55 0 0 1 765.45 56.063 Q 763.125 55.725 760.988 54.525 A 8.787 8.787 0 0 1 758.302 52.161 A 11.257 11.257 0 0 1 757.463 50.888 Q 756.445 49.1 756.174 46.324 A 22.134 22.134 0 0 1 756.075 44.175 Z" id="17" class="DqUMNHQr_15"></path><path d="M 811.95 56.025 L 800.85 56.025 L 800.85 0.525 L 823.8 0.525 Q 827.1 0.525 829.95 1.313 Q 832.8 2.1 834.975 4.05 A 11.111 11.111 0 0 1 837.074 6.632 Q 837.827 7.887 838.388 9.45 A 18.392 18.392 0 0 1 839.142 12.312 Q 839.414 13.782 839.533 15.493 A 40.538 40.538 0 0 1 839.625 18.3 Q 839.625 21.303 839.163 23.613 A 16.99 16.99 0 0 1 838.875 24.825 Q 838.125 27.525 836.888 29.25 A 11.761 11.761 0 0 1 835.254 31.102 A 9.95 9.95 0 0 1 834.075 32.025 Q 832.5 33.075 830.85 33.75 L 841.2 56.025 L 829.875 56.025 L 820.95 35.475 A 51.965 51.965 0 0 1 820.112 35.468 Q 819.684 35.461 819.209 35.447 A 88.847 88.847 0 0 1 818.888 35.438 Q 817.725 35.4 816.525 35.4 L 814.125 35.4 A 33.245 33.245 0 0 1 812.981 35.381 A 24.465 24.465 0 0 1 811.95 35.325 L 811.95 56.025 Z M 811.95 10.5 L 811.95 26.55 L 821.85 26.55 A 10.316 10.316 0 0 0 823.317 26.45 A 7.893 7.893 0 0 0 824.55 26.175 Q 825.75 25.8 826.65 24.863 A 5.247 5.247 0 0 0 827.479 23.707 Q 827.765 23.176 827.978 22.536 A 9.089 9.089 0 0 0 828.038 22.35 A 9.474 9.474 0 0 0 828.335 21.042 Q 828.525 19.847 828.525 18.3 Q 828.525 15.975 828.038 14.438 Q 827.55 12.9 826.65 12.038 Q 825.75 11.175 824.55 10.838 A 8.823 8.823 0 0 0 823.116 10.566 A 11.695 11.695 0 0 0 821.85 10.5 L 811.95 10.5 Z" id="18" class="DqUMNHQr_16"></path></g><style data-made-with="vivus-instant">.DqUMNHQr_0{stroke-dasharray:220 222;stroke-dashoffset:221;animation:DqUMNHQr_draw 2000ms ease-in-out 0ms forwards;}.DqUMNHQr_1{stroke-dasharray:285 287;stroke-dashoffset:286;animation:DqUMNHQr_draw 2000ms ease-in-out 62ms forwards;}.DqUMNHQr_2{stroke-dasharray:273 275;stroke-dashoffset:274;animation:DqUMNHQr_draw 2000ms ease-in-out 125ms forwards;}.DqUMNHQr_3{stroke-dasharray:312 314;stroke-dashoffset:313;animation:DqUMNHQr_draw 2000ms ease-in-out 187ms forwards;}.DqUMNHQr_4{stroke-dasharray:195 197;stroke-dashoffset:196;animation:DqUMNHQr_draw 2000ms ease-in-out 250ms forwards;}.DqUMNHQr_5{stroke-dasharray:264 266;stroke-dashoffset:265;animation:DqUMNHQr_draw 2000ms ease-in-out 312ms forwards;}.DqUMNHQr_6{stroke-dasharray:312 314;stroke-dashoffset:313;animation:DqUMNHQr_draw 2000ms ease-in-out 375ms forwards;}.DqUMNHQr_7{stroke-dasharray:284 286;stroke-dashoffset:285;animation:DqUMNHQr_draw 2000ms ease-in-out 437ms forwards;}.DqUMNHQr_8{stroke-dasharray:284 286;stroke-dashoffset:285;animation:DqUMNHQr_draw 2000ms ease-in-out 500ms forwards;}.DqUMNHQr_9{stroke-dasharray:264 266;stroke-dashoffset:265;animation:DqUMNHQr_draw 2000ms ease-in-out 562ms forwards;}.DqUMNHQr_10{stroke-dasharray:245 247;stroke-dashoffset:246;animation:DqUMNHQr_draw 2000ms ease-in-out 625ms forwards;}.DqUMNHQr_11{stroke-dasharray:264 266;stroke-dashoffset:265;animation:DqUMNHQr_draw 2000ms ease-in-out 687ms forwards;}.DqUMNHQr_12{stroke-dasharray:172 174;stroke-dashoffset:173;animation:DqUMNHQr_draw 2000ms ease-in-out 750ms forwards;}.DqUMNHQr_13{stroke-dasharray:273 275;stroke-dashoffset:274;animation:DqUMNHQr_draw 2000ms ease-in-out 812ms forwards;}.DqUMNHQr_14{stroke-dasharray:245 247;stroke-dashoffset:246;animation:DqUMNHQr_draw 2000ms ease-in-out 875ms forwards;}.DqUMNHQr_15{stroke-dasharray:264 266;stroke-dashoffset:265;animation:DqUMNHQr_draw 2000ms ease-in-out 937ms forwards;}.DqUMNHQr_16{stroke-dasharray:285 287;stroke-dashoffset:286;animation:DqUMNHQr_draw 2000ms ease-in-out 1000ms forwards;}@keyframes DqUMNHQr_draw{100%{stroke-dashoffset:0;}}@keyframes DqUMNHQr_fade{0%{stroke-opacity:1;}94.44444444444444%{stroke-opacity:1;}100%{stroke-opacity:0;}}</style></svg>