<svg className="absolute w-full h-full" xmlns="http://www.w3.org/2000/svg" version="1.1" xmlnsXlink="http://www.w3.org/1999/xlink" xmlnsSvgjs="http://svgjs.dev/svgjs" viewBox="0 0 800 800" style=""><defs><linearGradient x1="50%" y1="0%" x2="50%" y2="100%" id="ggglitch-grad"><stop stop-color="hsl(184, 74%, 44%)" stop-opacity="1" offset="45%"></stop><stop stop-color="rgb(250, 204, 21)" stop-opacity="1" offset="100%"></stop></linearGradient><clipPath id="SvgjsClipPath1550"><path width="72.72727272727273" height="800" d="M0 0 L72.72727272727273 0 L72.72727272727273 800 L0 800 Z" class="VNdTQVtX_0"></path><path width="72.72727272727273" height="800" d="M145.45454545454547 0 L218.1818181818182 0 L218.1818181818182 800 L145.45454545454547 800 Z" class="VNdTQVtX_1"></path><path width="72.72727272727273" height="800" d="M290.90909090909093 0 L363.6363636363637 0 L363.6363636363637 800 L290.90909090909093 800 Z" class="VNdTQVtX_2"></path><path width="72.72727272727273" height="800" d="M436.3636363636364 0 L509.0909090909091 0 L509.0909090909091 800 L436.3636363636364 800 Z" class="VNdTQVtX_3"></path><path width="72.72727272727273" height="800" d="M581.8181818181819 0 L654.5454545454546 0 L654.5454545454546 800 L581.8181818181819 800 Z" class="VNdTQVtX_4"></path><path width="72.72727272727273" height="800" d="M727.2727272727274 0 L800.0000000000001 0 L800.0000000000001 800 L727.2727272727274 800 Z" class="VNdTQVtX_5"></path><path width="72.72727272727273" height="800" d="M872.7272727272727 0 L945.4545454545455 0 L945.4545454545455 800 L872.7272727272727 800 Z" class="VNdTQVtX_6"></path><path width="72.72727272727273" height="800" d="M1018.1818181818182 0 L1090.909090909091 0 L1090.909090909091 800 L1018.1818181818182 800 Z" class="VNdTQVtX_7"></path><path width="72.72727272727273" height="800" d="M1163.6363636363637 0 L1236.3636363636365 0 L1236.3636363636365 800 L1163.6363636363637 800 Z" class="VNdTQVtX_8"></path><path width="72.72727272727273" height="800" d="M1309.0909090909092 0 L1381.818181818182 0 L1381.818181818182 800 L1309.0909090909092 800 Z" class="VNdTQVtX_9"></path><path width="72.72727272727273" height="800" d="M1454.5454545454547 0 L1527.2727272727275 0 L1527.2727272727275 800 L1454.5454545454547 800 Z" class="VNdTQVtX_10"></path><path width="72.72727272727273" height="800" d="M1600.0000000000002 0 L1672.727272727273 0 L1672.727272727273 800 L1600.0000000000002 800 Z" class="VNdTQVtX_11"></path></clipPath><clipPath id="SvgjsClipPath1551"><path width="72.72727272727273" height="800" d="M72.72727272727273 0 L145.45454545454547 0 L145.45454545454547 800 L72.72727272727273 800 Z" class="VNdTQVtX_12"></path><path width="72.72727272727273" height="800" d="M218.1818181818182 0 L290.90909090909093 0 L290.90909090909093 800 L218.1818181818182 800 Z" class="VNdTQVtX_13"></path><path width="72.72727272727273" height="800" d="M363.6363636363636 0 L436.3636363636364 0 L436.3636363636364 800 L363.6363636363636 800 Z" class="VNdTQVtX_14"></path><path width="72.72727272727273" height="800" d="M509.0909090909091 0 L581.8181818181819 0 L581.8181818181819 800 L509.0909090909091 800 Z" class="VNdTQVtX_15"></path><path width="72.72727272727273" height="800" d="M654.5454545454546 0 L727.2727272727274 0 L727.2727272727274 800 L654.5454545454546 800 Z" class="VNdTQVtX_16"></path><path width="72.72727272727273" height="800" d="M800 0 L872.7272727272727 0 L872.7272727272727 800 L800 800 Z" class="VNdTQVtX_17"></path><path width="72.72727272727273" height="800" d="M945.4545454545455 0 L1018.1818181818182 0 L1018.1818181818182 800 L945.4545454545455 800 Z" class="VNdTQVtX_18"></path><path width="72.72727272727273" height="800" d="M1090.909090909091 0 L1163.6363636363637 0 L1163.6363636363637 800 L1090.909090909091 800 Z" class="VNdTQVtX_19"></path><path width="72.72727272727273" height="800" d="M1236.3636363636365 0 L1309.0909090909092 0 L1309.0909090909092 800 L1236.3636363636365 800 Z" class="VNdTQVtX_20"></path><path width="72.72727272727273" height="800" d="M1381.818181818182 0 L1454.5454545454547 0 L1454.5454545454547 800 L1381.818181818182 800 Z" class="VNdTQVtX_21"></path><path width="72.72727272727273" height="800" d="M1527.2727272727275 0 L1600.0000000000002 0 L1600.0000000000002 800 L1527.2727272727275 800 Z" class="VNdTQVtX_22"></path></clipPath></defs><g stroke-width="59" stroke="url(#ggglitch-grad)" fill="none"><path fill="none" opacity="0.25" clip-path="url(&quot;#SvgjsClipPath1550&quot;)" d="M42,400A358,358 0,1,1 758,400A358,358 0,1,1 42,400" class="VNdTQVtX_23"></path><path fill="none" opacity="0.25" clip-path="url(&quot;#SvgjsClipPath1550&quot;)" d="M128,400A272,272 0,1,1 672,400A272,272 0,1,1 128,400" class="VNdTQVtX_24"></path><path fill="none" opacity="0.25" clip-path="url(&quot;#SvgjsClipPath1550&quot;)" d="M214,400A186,186 0,1,1 586,400A186,186 0,1,1 214,400" class="VNdTQVtX_25"></path><path fill="none" opacity="0.25" clip-path="url(&quot;#SvgjsClipPath1550&quot;)" d="M300,400A100,100 0,1,1 500,400A100,100 0,1,1 300,400" class="VNdTQVtX_26"></path><path fill="none" clip-path="url(&quot;#SvgjsClipPath1551&quot;)" d="M29.5,400A370.5,370.5 0,1,1 770.5,400A370.5,370.5 0,1,1 29.5,400" class="VNdTQVtX_27"></path><path fill="none" clip-path="url(&quot;#SvgjsClipPath1551&quot;)" d="M115.5,400A284.5,284.5 0,1,1 684.5,400A284.5,284.5 0,1,1 115.5,400" class="VNdTQVtX_28"></path><path fill="none" clip-path="url(&quot;#SvgjsClipPath1551&quot;)" d="M201.5,400A198.5,198.5 0,1,1 598.5,400A198.5,198.5 0,1,1 201.5,400" class="VNdTQVtX_29"></path><path fill="none" clip-path="url(&quot;#SvgjsClipPath1551&quot;)" d="M287.5,400A112.5,112.5 0,1,1 512.5,400A112.5,112.5 0,1,1 287.5,400" class="VNdTQVtX_30"></path></g><style data-made-with="vivus-instant">.VNdTQVtX_0{stroke-dasharray:1746 1748;stroke-dashoffset:1747;animation:VNdTQVtX_draw 2000ms linear 0ms forwards;}.VNdTQVtX_1{stroke-dasharray:1746 1748;stroke-dashoffset:1747;animation:VNdTQVtX_draw 2000ms linear 33ms forwards;}.VNdTQVtX_2{stroke-dasharray:1746 1748;stroke-dashoffset:1747;animation:VNdTQVtX_draw 2000ms linear 66ms forwards;}.VNdTQVtX_3{stroke-dasharray:1746 1748;stroke-dashoffset:1747;animation:VNdTQVtX_draw 2000ms linear 100ms forwards;}.VNdTQVtX_4{stroke-dasharray:1746 1748;stroke-dashoffset:1747;animation:VNdTQVtX_draw 2000ms linear 133ms forwards;}.VNdTQVtX_5{stroke-dasharray:1746 1748;stroke-dashoffset:1747;animation:VNdTQVtX_draw 2000ms linear 166ms forwards;}.VNdTQVtX_6{stroke-dasharray:1746 1748;stroke-dashoffset:1747;animation:VNdTQVtX_draw 2000ms linear 200ms forwards;}.VNdTQVtX_7{stroke-dasharray:1746 1748;stroke-dashoffset:1747;animation:VNdTQVtX_draw 2000ms linear 233ms forwards;}.VNdTQVtX_8{stroke-dasharray:1746 1748;stroke-dashoffset:1747;animation:VNdTQVtX_draw 2000ms linear 266ms forwards;}.VNdTQVtX_9{stroke-dasharray:1746 1748;stroke-dashoffset:1747;animation:VNdTQVtX_draw 2000ms linear 300ms forwards;}.VNdTQVtX_10{stroke-dasharray:1746 1748;stroke-dashoffset:1747;animation:VNdTQVtX_draw 2000ms linear 333ms forwards;}.VNdTQVtX_11{stroke-dasharray:1746 1748;stroke-dashoffset:1747;animation:VNdTQVtX_draw 2000ms linear 366ms forwards;}.VNdTQVtX_12{stroke-dasharray:1746 1748;stroke-dashoffset:1747;animation:VNdTQVtX_draw 2000ms linear 400ms forwards;}.VNdTQVtX_13{stroke-dasharray:1746 1748;stroke-dashoffset:1747;animation:VNdTQVtX_draw 2000ms linear 433ms forwards;}.VNdTQVtX_14{stroke-dasharray:1746 1748;stroke-dashoffset:1747;animation:VNdTQVtX_draw 2000ms linear 466ms forwards;}.VNdTQVtX_15{stroke-dasharray:1746 1748;stroke-dashoffset:1747;animation:VNdTQVtX_draw 2000ms linear 500ms forwards;}.VNdTQVtX_16{stroke-dasharray:1746 1748;stroke-dashoffset:1747;animation:VNdTQVtX_draw 2000ms linear 533ms forwards;}.VNdTQVtX_17{stroke-dasharray:1746 1748;stroke-dashoffset:1747;animation:VNdTQVtX_draw 2000ms linear 566ms forwards;}.VNdTQVtX_18{stroke-dasharray:1746 1748;stroke-dashoffset:1747;animation:VNdTQVtX_draw 2000ms linear 600ms forwards;}.VNdTQVtX_19{stroke-dasharray:1746 1748;stroke-dashoffset:1747;animation:VNdTQVtX_draw 2000ms linear 633ms forwards;}.VNdTQVtX_20{stroke-dasharray:1746 1748;stroke-dashoffset:1747;animation:VNdTQVtX_draw 2000ms linear 666ms forwards;}.VNdTQVtX_21{stroke-dasharray:1746 1748;stroke-dashoffset:1747;animation:VNdTQVtX_draw 2000ms linear 700ms forwards;}.VNdTQVtX_22{stroke-dasharray:1746 1748;stroke-dashoffset:1747;animation:VNdTQVtX_draw 2000ms linear 733ms forwards;}.VNdTQVtX_23{stroke-dasharray:2250 2252;stroke-dashoffset:2251;animation:VNdTQVtX_draw 2000ms linear 766ms forwards;}.VNdTQVtX_24{stroke-dasharray:1710 1712;stroke-dashoffset:1711;animation:VNdTQVtX_draw 2000ms linear 800ms forwards;}.VNdTQVtX_25{stroke-dasharray:1169 1171;stroke-dashoffset:1170;animation:VNdTQVtX_draw 2000ms linear 833ms forwards;}.VNdTQVtX_26{stroke-dasharray:629 631;stroke-dashoffset:630;animation:VNdTQVtX_draw 2000ms linear 866ms forwards;}.VNdTQVtX_27{stroke-dasharray:2329 2331;stroke-dashoffset:2330;animation:VNdTQVtX_draw 2000ms linear 900ms forwards;}.VNdTQVtX_28{stroke-dasharray:1788 1790;stroke-dashoffset:1789;animation:VNdTQVtX_draw 2000ms linear 933ms forwards;}.VNdTQVtX_29{stroke-dasharray:1248 1250;stroke-dashoffset:1249;animation:VNdTQVtX_draw 2000ms linear 966ms forwards;}.VNdTQVtX_30{stroke-dasharray:707 709;stroke-dashoffset:708;animation:VNdTQVtX_draw 2000ms linear 1000ms forwards;}@keyframes VNdTQVtX_draw{100%{stroke-dashoffset:0;}}@keyframes VNdTQVtX_fade{0%{stroke-opacity:1;}94.44444444444444%{stroke-opacity:1;}100%{stroke-opacity:0;}}</style></svg>