<svg className="scale-150" width="100%" height="100%" viewBox="0 0 800 800" fill="none" xmlns="http://www.w3.org/2000/svg" style="">
<g clip-path="url(#clip0_2_153)">
<path opacity="0.05" d="M400 862.5C655.432 862.5 862.5 655.432 862.5 400C862.5 144.568 655.432 -62.5 400 -62.5C144.568 -62.5 -62.5 144.568 -62.5 400C-62.5 655.432 144.568 862.5 400 862.5Z" stroke="url(#paint0_linear_2_153)" stroke-width="7.5" stroke-linecap="round" stroke-dasharray="1000 1000" class="lxRguRtA_0"></path>
<path opacity="0.09" d="M514.916 828.871C751.775 765.405 892.337 521.943 828.871 285.084C765.405 48.2254 521.943 -92.3373 285.084 -28.8711C48.2254 34.5951 -92.3372 278.057 -28.8711 514.916C34.5951 751.775 278.057 892.337 514.916 828.871Z" stroke="url(#paint1_linear_2_153)" stroke-width="7.5" stroke-linecap="round" stroke-dasharray="1000 1000" class="lxRguRtA_1"></path>
<path opacity="0.17" d="M687.792 687.792C846.736 528.849 846.736 271.151 687.792 112.207C528.849 -46.7359 271.151 -46.7359 112.208 112.207C-46.7358 271.151 -46.7358 528.849 112.208 687.792C271.151 846.736 528.849 846.736 687.792 687.792Z" stroke="url(#paint2_linear_2_153)" stroke-width="7.5" stroke-linecap="round" stroke-dasharray="1000 1000" class="lxRguRtA_2"></path>
<path opacity="0.25" d="M757.393 495.763C810.281 298.381 693.146 95.4959 495.763 42.6074C298.381 -10.2811 95.4959 106.854 42.6075 304.237C-10.281 501.619 106.855 704.504 304.237 757.393C501.619 810.281 704.504 693.145 757.393 495.763Z" stroke="url(#paint3_linear_2_153)" stroke-width="7.5" stroke-linecap="round" stroke-dasharray="1000 1000" class="lxRguRtA_3"></path>
<path opacity="0.33" d="M721.653 313.813C674.054 136.169 491.457 30.7471 313.813 78.3467C136.169 125.946 30.7471 308.543 78.3467 486.187C125.946 663.831 308.543 769.253 486.187 721.653C663.831 674.054 769.253 491.457 721.653 313.813Z" stroke="url(#paint4_linear_2_153)" stroke-width="7.5" stroke-linecap="round" stroke-dasharray="1000 1000" class="lxRguRtA_4"></path>
<path opacity="0.41" d="M609.304 190.696C493.708 75.1012 306.292 75.1012 190.696 190.696C75.1012 306.292 75.1012 493.708 190.696 609.304C306.292 724.899 493.708 724.899 609.304 609.304C724.899 493.708 724.899 306.292 609.304 190.696Z" stroke="url(#paint5_linear_2_153)" stroke-width="7.5" stroke-linecap="round" stroke-dasharray="1000 1000" class="lxRguRtA_5"></path>
<path opacity="0.49" d="M467.034 149.825C328.867 112.803 186.847 194.798 149.825 332.966C112.803 471.134 194.798 613.153 332.966 650.175C471.134 687.197 613.153 605.202 650.175 467.034C687.197 328.866 605.202 186.847 467.034 149.825Z" stroke="url(#paint6_linear_2_153)" stroke-width="7.5" stroke-linecap="round" stroke-dasharray="881 1000" class="lxRguRtA_6"></path>
<path opacity="0.56" d="M342.542 185.564C224.113 217.298 153.831 339.028 185.565 457.458C217.298 575.887 339.028 646.169 457.458 614.436C575.887 582.702 646.169 460.972 614.436 342.542C582.703 224.113 460.972 153.831 342.542 185.564Z" stroke="url(#paint7_linear_2_153)" stroke-width="7.5" stroke-linecap="round" stroke-dasharray="639 1000" class="lxRguRtA_7"></path>
<path opacity="0.64" d="M269.185 269.185C196.938 341.432 196.938 458.568 269.185 530.815C341.432 603.062 458.568 603.062 530.815 530.815C603.062 458.568 603.062 341.432 530.815 269.185C458.568 196.938 341.432 196.938 269.185 269.185Z" stroke="url(#paint8_linear_2_153)" stroke-width="7.5" stroke-linecap="round" stroke-dasharray="436 1000" class="lxRguRtA_8"></path>
<path opacity="0.72" d="M257.043 361.695C235.888 440.648 282.742 521.802 361.695 542.957C440.648 564.112 521.802 517.258 542.957 438.305C564.112 359.352 517.258 278.198 438.305 257.043C359.352 235.888 278.198 282.742 257.043 361.695Z" stroke="url(#paint9_linear_2_153)" stroke-width="7.5" stroke-linecap="round" stroke-dasharray="271 930" class="lxRguRtA_9"></path>
<path opacity="0.8" d="M292.782 428.729C308.649 487.944 369.514 523.084 428.729 507.218C487.944 491.351 523.084 430.486 507.218 371.271C491.351 312.056 430.486 276.916 371.271 292.782C312.056 308.649 276.916 369.514 292.782 428.729Z" stroke="url(#paint10_linear_2_153)" stroke-width="7.5" stroke-linecap="round" stroke-dasharray="145 697" class="lxRguRtA_10"></path>
<path opacity="0.88" d="M347.674 452.326C376.573 481.225 423.427 481.225 452.326 452.326C481.225 423.427 481.225 376.573 452.326 347.674C423.427 318.775 376.573 318.775 347.674 347.674C318.775 376.573 318.775 423.427 347.674 452.326Z" stroke="url(#paint11_linear_2_153)" stroke-width="7.5" stroke-linecap="round" stroke-dasharray="58 465" class="lxRguRtA_11"></path>
<path opacity="0.96" d="M390.424 435.739C410.162 441.028 430.45 429.314 435.739 409.576C441.028 389.838 429.315 369.55 409.576 364.261C389.838 358.972 369.55 370.685 364.261 390.424C358.972 410.162 370.685 430.45 390.424 435.739Z" stroke="url(#paint12_linear_2_153)" stroke-width="7.5" stroke-linecap="round" stroke-dasharray="10 232" class="lxRguRtA_12"></path>
</g>
<defs>
<linearGradient id="paint0_linear_2_153" x1="400" y1="-62.5" x2="400" y2="862.5" gradientUnits="userSpaceOnUse">
<stop stop-color="#2DD4BF"></stop>
<stop offset="1" stop-color="#FACC15"></stop>
</linearGradient>
<linearGradient id="paint1_linear_2_153" x1="285.084" y1="-28.8711" x2="514.916" y2="828.871" gradientUnits="userSpaceOnUse">
<stop stop-color="#2DD4BF"></stop>
<stop offset="1" stop-color="#FACC15"></stop>
</linearGradient>
<linearGradient id="paint2_linear_2_153" x1="112.208" y1="112.207" x2="687.792" y2="687.792" gradientUnits="userSpaceOnUse">
<stop stop-color="#2DD4BF"></stop>
<stop offset="1" stop-color="#FACC15"></stop>
</linearGradient>
<linearGradient id="paint3_linear_2_153" x1="42.6075" y1="304.237" x2="757.393" y2="495.763" gradientUnits="userSpaceOnUse">
<stop stop-color="#2DD4BF"></stop>
<stop offset="1" stop-color="#FACC15"></stop>
</linearGradient>
<linearGradient id="paint4_linear_2_153" x1="78.3467" y1="486.187" x2="721.653" y2="313.813" gradientUnits="userSpaceOnUse">
<stop stop-color="#2DD4BF"></stop>
<stop offset="1" stop-color="#FACC15"></stop>
</linearGradient>
<linearGradient id="paint5_linear_2_153" x1="190.696" y1="609.304" x2="609.304" y2="190.696" gradientUnits="userSpaceOnUse">
<stop stop-color="#2DD4BF"></stop>
<stop offset="1" stop-color="#FACC15"></stop>
</linearGradient>
<linearGradient id="paint6_linear_2_153" x1="332.966" y1="650.175" x2="467.034" y2="149.825" gradientUnits="userSpaceOnUse">
<stop stop-color="#2DD4BF"></stop>
<stop offset="1" stop-color="#FACC15"></stop>
</linearGradient>
<linearGradient id="paint7_linear_2_153" x1="457.458" y1="614.436" x2="342.542" y2="185.564" gradientUnits="userSpaceOnUse">
<stop stop-color="#2DD4BF"></stop>
<stop offset="1" stop-color="#FACC15"></stop>
</linearGradient>
<linearGradient id="paint8_linear_2_153" x1="530.815" y1="530.815" x2="269.185" y2="269.185" gradientUnits="userSpaceOnUse">
<stop stop-color="#2DD4BF"></stop>
<stop offset="1" stop-color="#FACC15"></stop>
</linearGradient>
<linearGradient id="paint9_linear_2_153" x1="542.957" y1="438.305" x2="257.043" y2="361.695" gradientUnits="userSpaceOnUse">
<stop stop-color="#2DD4BF"></stop>
<stop offset="1" stop-color="#FACC15"></stop>
</linearGradient>
<linearGradient id="paint10_linear_2_153" x1="507.218" y1="371.271" x2="292.782" y2="428.729" gradientUnits="userSpaceOnUse">
<stop stop-color="#2DD4BF"></stop>
<stop offset="1" stop-color="#FACC15"></stop>
</linearGradient>
<linearGradient id="paint11_linear_2_153" x1="452.326" y1="347.674" x2="347.674" y2="452.326" gradientUnits="userSpaceOnUse">
<stop stop-color="#2DD4BF"></stop>
<stop offset="1" stop-color="#FACC15"></stop>
</linearGradient>
<linearGradient id="paint12_linear_2_153" x1="409.576" y1="364.261" x2="390.424" y2="435.739" gradientUnits="userSpaceOnUse">
<stop stop-color="#2DD4BF"></stop>
<stop offset="1" stop-color="#FACC15"></stop>
</linearGradient>
<clipPath id="clip0_2_153">
<path width="100%" height="100%" fill="white" d="M0 0 L800 0 L800 800 L0 800 Z" class="lxRguRtA_13"></path>
</clipPath>
</defs>
<style data-made-with="vivus-instant">.lxRguRtA_0{stroke-dasharray:2907 2909;stroke-dashoffset:2908;animation:lxRguRtA_draw 2000ms linear 0ms forwards;}.lxRguRtA_1{stroke-dasharray:2791 2793;stroke-dashoffset:2792;animation:lxRguRtA_draw 2000ms linear 76ms forwards;}.lxRguRtA_2{stroke-dasharray:2558 2560;stroke-dashoffset:2559;animation:lxRguRtA_draw 2000ms linear 153ms forwards;}.lxRguRtA_3{stroke-dasharray:2326 2328;stroke-dashoffset:2327;animation:lxRguRtA_draw 2000ms linear 230ms forwards;}.lxRguRtA_4{stroke-dasharray:2093 2095;stroke-dashoffset:2094;animation:lxRguRtA_draw 2000ms linear 307ms forwards;}.lxRguRtA_5{stroke-dasharray:1861 1863;stroke-dashoffset:1862;animation:lxRguRtA_draw 2000ms linear 384ms forwards;}.lxRguRtA_6{stroke-dasharray:1628 1630;stroke-dashoffset:1629;animation:lxRguRtA_draw 2000ms linear 461ms forwards;}.lxRguRtA_7{stroke-dasharray:1396 1398;stroke-dashoffset:1397;animation:lxRguRtA_draw 2000ms linear 538ms forwards;}.lxRguRtA_8{stroke-dasharray:1163 1165;stroke-dashoffset:1164;animation:lxRguRtA_draw 2000ms linear 615ms forwards;}.lxRguRtA_9{stroke-dasharray:931 933;stroke-dashoffset:932;animation:lxRguRtA_draw 2000ms linear 692ms forwards;}.lxRguRtA_10{stroke-dasharray:698 700;stroke-dashoffset:699;animation:lxRguRtA_draw 2000ms linear 769ms forwards;}.lxRguRtA_11{stroke-dasharray:466 468;stroke-dashoffset:467;animation:lxRguRtA_draw 2000ms linear 846ms forwards;}.lxRguRtA_12{stroke-dasharray:233 235;stroke-dashoffset:234;animation:lxRguRtA_draw 2000ms linear 923ms forwards;}.lxRguRtA_13{stroke-dasharray:3200 3202;stroke-dashoffset:3201;animation:lxRguRtA_draw 2000ms linear 1000ms forwards;}@keyframes lxRguRtA_draw{100%{stroke-dashoffset:0;}}@keyframes lxRguRtA_fade{0%{stroke-opacity:1;}94.44444444444444%{stroke-opacity:1;}100%{stroke-opacity:0;}}</style></svg>
