<svg className="absolute top-1/2 left-1/2 -translate-x-1/2 -translate-y-1/2" width="902.4" height="71.203" viewBox="0 0 902.4 71.203" xmlns="http://www.w3.org/2000/svg" style=""><g id="svgGroup" stroke-linecap="round" fill-rule="nonzero" font-size="9pt" stroke="#facc15" stroke-width="0.45mm" fill="none" style="stroke:#facc15;stroke-width:0.45mm;fill:none"><path d="M 35.7 7.002 L 21.5 7.002 L 21.5 64.202 L 35.7 64.202 L 35.7 70.602 L 0 70.602 L 0 64.202 L 14.2 64.202 L 14.2 7.002 L 0 7.002 L 0 0.602 L 35.7 0.602 L 35.7 7.002 Z" id="0" vector-effect="non-scaling-stroke" class="kBtjMmjD_0"></path><path d="M 100.3 57.202 L 100.3 35.602 L 107.4 35.602 L 107.4 70.602 L 100.9 70.602 L 100.9 64.702 Q 96.9 67.902 91.55 69.552 A 37.693 37.693 0 0 1 82.361 71.144 A 43.61 43.61 0 0 1 80.1 71.202 Q 70.7 71.202 62.65 67.002 Q 54.6 62.802 49.7 54.802 A 32.903 32.903 0 0 1 45.328 42.697 A 43.48 43.48 0 0 1 44.8 35.802 A 37.191 37.191 0 0 1 46.722 23.713 A 33.842 33.842 0 0 1 49.6 17.452 Q 54.4 9.302 62.8 4.652 Q 71.2 0.002 81.8 0.002 Q 89.8 0.002 96.5 2.552 A 29.477 29.477 0 0 1 106.579 8.853 A 28.547 28.547 0 0 1 107.8 10.102 L 103.2 14.802 A 28.106 28.106 0 0 0 85.038 6.714 A 37.635 37.635 0 0 0 82.1 6.602 A 33.154 33.154 0 0 0 72.12 8.066 A 29.628 29.628 0 0 0 66.75 10.352 Q 59.9 14.102 56 20.802 A 28.966 28.966 0 0 0 52.124 34.514 A 34.557 34.557 0 0 0 52.1 35.802 A 33.816 33.816 0 0 0 52.968 43.629 A 26.52 26.52 0 0 0 56.05 51.252 Q 60 57.802 66.55 61.252 Q 73.1 64.702 80.6 64.702 Q 86.1 64.702 91.25 62.852 Q 96.4 61.002 100.3 57.202 Z" id="1" vector-effect="non-scaling-stroke" class="kBtjMmjD_1"></path><path d="M 146.09 69.199 A 36.573 36.573 0 0 1 140.05 66.552 Q 131.6 61.902 126.85 53.802 A 34.851 34.851 0 0 1 122.142 37.478 A 41.802 41.802 0 0 1 122.1 35.602 A 36.906 36.906 0 0 1 124.049 23.482 A 33.763 33.763 0 0 1 126.85 17.402 Q 131.6 9.302 140.05 4.652 A 37.869 37.869 0 0 1 156.648 0.057 A 45.151 45.151 0 0 1 158.9 0.002 A 40.469 40.469 0 0 1 170.814 1.71 A 35.952 35.952 0 0 1 177.65 4.602 Q 186 9.202 190.8 17.352 A 34.998 34.998 0 0 1 195.581 34.347 A 41.756 41.756 0 0 1 195.6 35.602 A 36.561 36.561 0 0 1 193.433 48.293 A 34.032 34.032 0 0 1 190.8 53.852 Q 186 62.002 177.65 66.602 A 37.318 37.318 0 0 1 162.1 71.089 A 44.982 44.982 0 0 1 158.9 71.202 A 40.117 40.117 0 0 1 146.09 69.199 Z M 158.9 64.602 A 31.626 31.626 0 0 0 168.878 63.063 A 28.661 28.661 0 0 0 173.9 60.852 Q 180.6 57.102 184.4 50.452 A 29.096 29.096 0 0 0 188.177 36.873 A 34.631 34.631 0 0 0 188.2 35.602 A 30.494 30.494 0 0 0 186.485 25.283 A 28.231 28.231 0 0 0 184.4 20.752 Q 180.6 14.102 173.9 10.352 A 29.657 29.657 0 0 0 160.95 6.66 A 35.479 35.479 0 0 0 158.9 6.602 A 31.737 31.737 0 0 0 148.674 8.217 A 29.087 29.087 0 0 0 143.85 10.352 Q 137.1 14.102 133.25 20.752 Q 129.4 27.402 129.4 35.602 Q 129.4 43.802 133.25 50.452 Q 137.1 57.102 143.85 60.852 Q 150.6 64.602 158.9 64.602 Z" id="2" vector-effect="non-scaling-stroke" class="kBtjMmjD_2"></path><path d="M 268.1 70.602 L 260 70.602 L 244 48.102 A 50.085 50.085 0 0 1 239.122 48.397 A 55.347 55.347 0 0 1 238.4 48.402 L 219.6 48.402 L 219.6 70.602 L 212.2 70.602 L 212.2 0.602 L 238.4 0.602 A 45.287 45.287 0 0 1 246.749 1.324 Q 254.353 2.752 259.4 7.002 A 20.949 20.949 0 0 1 266.814 21.219 A 29.956 29.956 0 0 1 267 24.602 A 26.872 26.872 0 0 1 266.206 31.288 A 20.619 20.619 0 0 1 262.85 38.452 A 21.592 21.592 0 0 1 254.893 45.025 A 28.581 28.581 0 0 1 251 46.602 L 268.1 70.602 Z M 238.2 7.002 L 219.6 7.002 L 219.6 42.102 L 238.2 42.102 A 37.708 37.708 0 0 0 244.221 41.652 Q 247.413 41.135 249.97 40.022 A 16.91 16.91 0 0 0 254.1 37.502 A 15.006 15.006 0 0 0 259.364 27.88 A 21.93 21.93 0 0 0 259.6 24.602 A 20.978 20.978 0 0 0 258.95 19.225 A 14.515 14.515 0 0 0 254.1 11.552 Q 249.751 7.954 242.34 7.201 A 40.993 40.993 0 0 0 238.2 7.002 Z" id="3" vector-effect="non-scaling-stroke" class="kBtjMmjD_3"></path><path d="M 411 26.902 L 411 70.602 L 403.7 70.602 L 403.7 27.102 A 32.15 32.15 0 0 0 403.203 21.253 Q 402.605 18.022 401.284 15.499 A 15.268 15.268 0 0 0 398.55 11.752 A 17.081 17.081 0 0 0 389.937 7.156 A 25.25 25.25 0 0 0 384.5 6.602 Q 375.1 6.602 369.8 12.052 A 16.875 16.875 0 0 0 366.018 18.361 Q 365.093 21.01 364.732 24.27 A 40.283 40.283 0 0 0 364.5 28.702 L 364.5 70.602 L 357.2 70.602 L 357.2 27.102 A 33.136 33.136 0 0 0 356.724 21.287 Q 355.657 15.312 352.2 11.752 A 16.42 16.42 0 0 0 343.958 7.21 A 24.797 24.797 0 0 0 338.3 6.602 A 26.708 26.708 0 0 0 332.259 7.246 Q 326.961 8.475 323.45 12.052 A 16.876 16.876 0 0 0 319.61 18.424 Q 318.69 21.061 318.33 24.301 A 39.957 39.957 0 0 0 318.1 28.702 L 318.1 70.602 L 310.7 70.602 L 310.7 0.602 L 317.8 0.602 L 317.8 12.302 Q 320.7 6.302 326.4 3.152 A 24.791 24.791 0 0 1 334.291 0.454 A 33.377 33.377 0 0 1 339.9 0.002 A 32.626 32.626 0 0 1 346.625 0.662 A 24.061 24.061 0 0 1 353.95 3.452 A 19.857 19.857 0 0 1 362.4 13.102 Q 365.4 6.702 371.45 3.352 A 26.458 26.458 0 0 1 380.273 0.397 A 34.6 34.6 0 0 1 385.6 0.002 Q 396.739 0.002 403.311 5.947 A 21.226 21.226 0 0 1 404.3 6.902 A 22.154 22.154 0 0 1 409.528 15.983 Q 410.586 19.417 410.884 23.555 A 46.669 46.669 0 0 1 411 26.902 Z" id="5" vector-effect="non-scaling-stroke" class="kBtjMmjD_4"></path><path d="M 491.2 30.902 L 491.2 70.602 L 483.9 70.602 L 483.9 50.002 L 439.9 50.002 L 439.9 70.602 L 432.7 70.602 L 432.7 30.902 A 45.818 45.818 0 0 1 433.525 21.916 Q 435.245 13.324 440.55 7.952 A 26.062 26.062 0 0 1 454.198 0.74 A 38.212 38.212 0 0 1 461.9 0.002 Q 475.5 0.002 483.35 7.952 A 25.574 25.574 0 0 1 489.588 18.755 Q 490.797 22.767 491.099 27.594 A 52.945 52.945 0 0 1 491.2 30.902 Z M 439.9 43.602 L 483.9 43.602 L 483.9 30.202 A 37.612 37.612 0 0 0 483.341 23.489 Q 482.671 19.805 481.201 16.914 A 17.697 17.697 0 0 0 478.1 12.552 Q 472.3 6.602 461.9 6.602 Q 452.46 6.602 446.81 11.504 A 18.275 18.275 0 0 0 445.7 12.552 Q 440.897 17.479 440.071 26.35 A 41.599 41.599 0 0 0 439.9 30.202 L 439.9 43.602 Z" id="6" vector-effect="non-scaling-stroke" class="kBtjMmjD_5"></path><path d="M 516.9 64.202 L 564.4 64.202 L 564.4 70.602 L 507 70.602 L 507 65.902 L 528.8 38.102 L 513.3 38.102 L 513.3 31.902 L 533.6 31.902 L 553.1 7.002 L 507.3 7.002 L 507.3 0.602 L 562.9 0.602 L 562.9 5.202 L 542 32.002 L 556.5 32.002 L 556.5 38.202 L 537.2 38.202 L 516.9 64.202 Z" id="7" vector-effect="non-scaling-stroke" class="kBtjMmjD_6"></path><path d="M 630.7 0.602 L 638 0.602 L 638 70.602 L 630.7 70.602 L 630.7 38.302 L 586.9 38.302 L 586.9 70.602 L 579.5 70.602 L 579.5 0.602 L 586.9 0.602 L 586.9 31.802 L 630.7 31.802 L 630.7 0.602 Z" id="8" vector-effect="non-scaling-stroke" class="kBtjMmjD_7"></path><path d="M 689.5 7.002 L 675.3 7.002 L 675.3 64.202 L 689.5 64.202 L 689.5 70.602 L 653.8 70.602 L 653.8 64.202 L 668 64.202 L 668 7.002 L 653.8 7.002 L 653.8 0.602 L 689.5 0.602 L 689.5 7.002 Z" id="9" vector-effect="non-scaling-stroke" class="kBtjMmjD_8"></path><path d="M 752.2 7.702 L 749.5 13.502 Q 739.2 7.502 726.7 6.602 L 726.7 70.602 L 719.3 70.602 L 719.3 6.602 Q 707 7.402 696.4 13.502 L 693.7 7.702 A 55.615 55.615 0 0 1 720.388 0.049 A 66.64 66.64 0 0 1 722.9 0.002 A 60.198 60.198 0 0 1 740.235 2.421 A 52.068 52.068 0 0 1 752.2 7.702 Z" id="10" vector-effect="non-scaling-stroke" class="kBtjMmjD_9"></path><path d="M 780.19 69.199 A 36.573 36.573 0 0 1 774.15 66.552 Q 765.7 61.902 760.95 53.802 A 34.851 34.851 0 0 1 756.242 37.478 A 41.802 41.802 0 0 1 756.2 35.602 A 36.906 36.906 0 0 1 758.149 23.482 A 33.763 33.763 0 0 1 760.95 17.402 Q 765.7 9.302 774.15 4.652 A 37.869 37.869 0 0 1 790.748 0.057 A 45.151 45.151 0 0 1 793 0.002 A 40.469 40.469 0 0 1 804.914 1.71 A 35.952 35.952 0 0 1 811.75 4.602 Q 820.1 9.202 824.9 17.352 A 34.998 34.998 0 0 1 829.681 34.347 A 41.756 41.756 0 0 1 829.7 35.602 A 36.561 36.561 0 0 1 827.533 48.293 A 34.032 34.032 0 0 1 824.9 53.852 Q 820.1 62.002 811.75 66.602 A 37.318 37.318 0 0 1 796.2 71.089 A 44.982 44.982 0 0 1 793 71.202 A 40.117 40.117 0 0 1 780.19 69.199 Z M 793 64.602 A 31.626 31.626 0 0 0 802.978 63.063 A 28.661 28.661 0 0 0 808 60.852 Q 814.7 57.102 818.5 50.452 A 29.096 29.096 0 0 0 822.277 36.873 A 34.631 34.631 0 0 0 822.3 35.602 A 30.494 30.494 0 0 0 820.585 25.283 A 28.231 28.231 0 0 0 818.5 20.752 Q 814.7 14.102 808 10.352 A 29.657 29.657 0 0 0 795.05 6.66 A 35.479 35.479 0 0 0 793 6.602 A 31.737 31.737 0 0 0 782.774 8.217 A 29.087 29.087 0 0 0 777.95 10.352 Q 771.2 14.102 767.35 20.752 Q 763.5 27.402 763.5 35.602 Q 763.5 43.802 767.35 50.452 Q 771.2 57.102 777.95 60.852 Q 784.7 64.602 793 64.602 Z" id="11" vector-effect="non-scaling-stroke" class="kBtjMmjD_10"></path><path d="M 894.9 0.602 L 902.4 0.602 L 871.4 70.602 L 864.1 70.602 L 833.1 0.602 L 841.1 0.602 L 867.9 61.402 L 894.9 0.602 Z" id="12" vector-effect="non-scaling-stroke" class="kBtjMmjD_11"></path></g><style data-made-with="vivus-instant">.kBtjMmjD_0{stroke-dasharray:269 271;stroke-dashoffset:270;animation:kBtjMmjD_draw 2000ms ease-in-out 0ms forwards;}.kBtjMmjD_1{stroke-dasharray:385 387;stroke-dashoffset:386;animation:kBtjMmjD_draw 2000ms ease-in-out 90ms forwards;}.kBtjMmjD_2{stroke-dasharray:414 416;stroke-dashoffset:415;animation:kBtjMmjD_draw 2000ms ease-in-out 181ms forwards;}.kBtjMmjD_3{stroke-dasharray:423 425;stroke-dashoffset:424;animation:kBtjMmjD_draw 2000ms ease-in-out 272ms forwards;}.kBtjMmjD_4{stroke-dasharray:583 585;stroke-dashoffset:584;animation:kBtjMmjD_draw 2000ms ease-in-out 363ms forwards;}.kBtjMmjD_5{stroke-dasharray:421 423;stroke-dashoffset:422;animation:kBtjMmjD_draw 2000ms ease-in-out 454ms forwards;}.kBtjMmjD_6{stroke-dasharray:445 447;stroke-dashoffset:446;animation:kBtjMmjD_draw 2000ms ease-in-out 545ms forwards;}.kBtjMmjD_7{stroke-dasharray:385 387;stroke-dashoffset:386;animation:kBtjMmjD_draw 2000ms ease-in-out 636ms forwards;}.kBtjMmjD_8{stroke-dasharray:269 271;stroke-dashoffset:270;animation:kBtjMmjD_draw 2000ms ease-in-out 727ms forwards;}.kBtjMmjD_9{stroke-dasharray:258 260;stroke-dashoffset:259;animation:kBtjMmjD_draw 2000ms ease-in-out 818ms forwards;}.kBtjMmjD_10{stroke-dasharray:414 416;stroke-dashoffset:415;animation:kBtjMmjD_draw 2000ms ease-in-out 909ms forwards;}.kBtjMmjD_11{stroke-dasharray:309 311;stroke-dashoffset:310;animation:kBtjMmjD_draw 2000ms ease-in-out 1000ms forwards;}@keyframes kBtjMmjD_draw{100%{stroke-dashoffset:0;}}@keyframes kBtjMmjD_fade{0%{stroke-opacity:1;}94.44444444444444%{stroke-opacity:1;}100%{stroke-opacity:0;}}</style></svg>