<svg className="w-full h-full scale-150" width="800" height="800" viewBox="0 0 800 800" fill="none" xmlns="http://www.w3.org/2000/svg" style="">
<g clip-path="url(#clip0_1_29)">
<path opacity="0.05" d="M400 862.5C655.432 862.5 862.5 655.432 862.5 400C862.5 144.568 655.432 -62.5 400 -62.5C144.568 -62.5 -62.5 144.568 -62.5 400C-62.5 655.432 144.568 862.5 400 862.5Z" stroke="url(#paint0_linear_1_29)" stroke-width="7.5" stroke-linecap="round" stroke-dasharray="1000 1000" class="zIYZDmRq_0"></path>
<path opacity="0.13" d="M612.75 768.494C816.264 650.995 885.992 390.764 768.494 187.25C650.995 -16.2635 390.764 -85.9924 187.25 31.5062C-16.2635 149.005 -85.9924 409.237 31.5062 612.75C149.005 816.264 409.237 885.992 612.75 768.494Z" stroke="url(#paint1_linear_1_29)" stroke-width="7.5" stroke-linecap="round" stroke-dasharray="1000 1000" class="zIYZDmRq_1"></path>
<path opacity="0.21" d="M736.451 594.25C843.732 408.433 780.067 170.831 594.25 63.5492C408.433 -43.7321 170.831 19.9334 63.5492 205.75C-43.7321 391.567 19.9334 629.17 205.75 736.451C391.567 843.732 629.17 780.067 736.451 594.25Z" stroke="url(#paint2_linear_1_29)" stroke-width="7.5" stroke-linecap="round" stroke-dasharray="1000 1000" class="zIYZDmRq_2"></path>
<path opacity="0.29" d="M751.5 400C751.5 205.872 594.128 48.5 400 48.5C205.872 48.5 48.5 205.872 48.5 400C48.5 594.128 205.872 751.5 400 751.5C594.128 751.5 751.5 594.128 751.5 400Z" stroke="url(#paint3_linear_1_29)" stroke-width="7.5" stroke-linecap="round" stroke-dasharray="1000 1000" class="zIYZDmRq_3"></path>
<path opacity="0.37" d="M672.365 242.75C585.518 92.327 393.173 40.7882 242.75 127.635C92.327 214.482 40.7883 406.827 127.635 557.25C214.482 707.673 406.827 759.212 557.25 672.365C707.673 585.518 759.212 393.173 672.365 242.75Z" stroke="url(#paint4_linear_1_29)" stroke-width="7.5" stroke-linecap="round" stroke-dasharray="1000 1000" class="zIYZDmRq_4"></path>
<path opacity="0.45" d="M538.75 159.678C406.024 83.0484 236.308 128.524 159.678 261.25C83.0485 393.976 128.524 563.693 261.25 640.322C393.976 716.952 563.693 671.476 640.322 538.75C716.952 406.024 671.476 236.307 538.75 159.678Z" stroke="url(#paint5_linear_1_29)" stroke-width="7.5" stroke-linecap="round" stroke-dasharray="1000 1000" class="zIYZDmRq_5"></path>
<path opacity="0.53" d="M400 159.5C267.176 159.5 159.5 267.176 159.5 400C159.5 532.824 267.176 640.5 400 640.5C532.824 640.5 640.5 532.824 640.5 400C640.5 267.176 532.824 159.5 400 159.5Z" stroke="url(#paint6_linear_1_29)" stroke-width="7.5" stroke-linecap="round" stroke-dasharray="756 1000" class="zIYZDmRq_6"></path>
<path opacity="0.6" d="M298.25 223.764C200.917 279.959 167.569 404.417 223.764 501.75C279.959 599.083 404.417 632.431 501.75 576.236C599.083 520.041 632.431 395.583 576.236 298.25C520.041 200.917 395.583 167.569 298.25 223.764Z" stroke="url(#paint7_linear_1_29)" stroke-width="7.5" stroke-linecap="round" stroke-dasharray="533 1000" class="zIYZDmRq_7"></path>
<path opacity="0.68" d="M255.807 316.75C209.829 396.386 237.114 498.216 316.75 544.193C396.386 590.171 498.216 562.886 544.193 483.25C590.171 403.614 562.886 301.784 483.25 255.807C403.614 209.829 301.784 237.114 255.807 316.75Z" stroke="url(#paint8_linear_1_29)" stroke-width="7.5" stroke-linecap="round" stroke-dasharray="349 1000" class="zIYZDmRq_8"></path>
<path opacity="0.76" d="M270.5 400C270.5 471.521 328.479 529.5 400 529.5C471.521 529.5 529.5 471.521 529.5 400C529.5 328.479 471.521 270.5 400 270.5C328.479 270.5 270.5 328.479 270.5 400Z" stroke="url(#paint9_linear_1_29)" stroke-width="7.5" stroke-linecap="round" stroke-dasharray="203 814" class="zIYZDmRq_9"></path>
<path opacity="0.84" d="M319.893 446.25C345.436 490.492 402.008 505.651 446.25 480.107C490.492 454.564 505.651 397.992 480.107 353.75C454.564 309.508 397.992 294.35 353.75 319.893C309.508 345.436 294.35 402.008 319.893 446.25Z" stroke="url(#paint10_linear_1_29)" stroke-width="7.5" stroke-linecap="round" stroke-dasharray="97 581" class="zIYZDmRq_10"></path>
<path opacity="0.92" d="M372.25 448.064C398.795 463.39 432.739 454.295 448.064 427.75C463.39 401.205 454.295 367.262 427.75 351.936C401.205 336.61 367.262 345.705 351.936 372.25C336.61 398.795 345.705 432.739 372.25 448.064Z" stroke="url(#paint11_linear_1_29)" stroke-width="7.5" stroke-linecap="round" stroke-dasharray="29 349" class="zIYZDmRq_11"></path>
<path d="M400 418.5C410.217 418.5 418.5 410.217 418.5 400C418.5 389.783 410.217 381.5 400 381.5C389.783 381.5 381.5 389.783 381.5 400C381.5 410.217 389.783 418.5 400 418.5Z" stroke="url(#paint12_linear_1_29)" stroke-width="7.5" stroke-linecap="round" class="zIYZDmRq_12"></path>
</g>
<defs>
<linearGradient id="paint0_linear_1_29" x1="400" y1="-62.5" x2="400" y2="862.5" gradientUnits="userSpaceOnUse">
<stop stop-color="#2DD4BF"></stop>
<stop offset="1" stop-color="#FACC15"></stop>
</linearGradient>
<linearGradient id="paint1_linear_1_29" x1="187.25" y1="31.5062" x2="612.75" y2="768.494" gradientUnits="userSpaceOnUse">
<stop stop-color="#2DD4BF"></stop>
<stop offset="1" stop-color="#FACC15"></stop>
</linearGradient>
<linearGradient id="paint2_linear_1_29" x1="63.5492" y1="205.75" x2="736.451" y2="594.25" gradientUnits="userSpaceOnUse">
<stop stop-color="#2DD4BF"></stop>
<stop offset="1" stop-color="#FACC15"></stop>
</linearGradient>
<linearGradient id="paint3_linear_1_29" x1="48.5" y1="400" x2="751.5" y2="400" gradientUnits="userSpaceOnUse">
<stop stop-color="#2DD4BF"></stop>
<stop offset="1" stop-color="#FACC15"></stop>
</linearGradient>
<linearGradient id="paint4_linear_1_29" x1="127.635" y1="557.25" x2="672.365" y2="242.75" gradientUnits="userSpaceOnUse">
<stop stop-color="#2DD4BF"></stop>
<stop offset="1" stop-color="#FACC15"></stop>
</linearGradient>
<linearGradient id="paint5_linear_1_29" x1="261.25" y1="640.322" x2="538.75" y2="159.678" gradientUnits="userSpaceOnUse">
<stop stop-color="#2DD4BF"></stop>
<stop offset="1" stop-color="#FACC15"></stop>
</linearGradient>
<linearGradient id="paint6_linear_1_29" x1="400" y1="640.5" x2="400" y2="159.5" gradientUnits="userSpaceOnUse">
<stop stop-color="#2DD4BF"></stop>
<stop offset="1" stop-color="#FACC15"></stop>
</linearGradient>
<linearGradient id="paint7_linear_1_29" x1="501.75" y1="576.236" x2="298.25" y2="223.764" gradientUnits="userSpaceOnUse">
<stop stop-color="#2DD4BF"></stop>
<stop offset="1" stop-color="#FACC15"></stop>
</linearGradient>
<linearGradient id="paint8_linear_1_29" x1="544.193" y1="483.25" x2="255.807" y2="316.75" gradientUnits="userSpaceOnUse">
<stop stop-color="#2DD4BF"></stop>
<stop offset="1" stop-color="#FACC15"></stop>
</linearGradient>
<linearGradient id="paint9_linear_1_29" x1="529.5" y1="400" x2="270.5" y2="400" gradientUnits="userSpaceOnUse">
<stop stop-color="#2DD4BF"></stop>
<stop offset="1" stop-color="#FACC15"></stop>
</linearGradient>
<linearGradient id="paint10_linear_1_29" x1="480.107" y1="353.75" x2="319.893" y2="446.25" gradientUnits="userSpaceOnUse">
<stop stop-color="#2DD4BF"></stop>
<stop offset="1" stop-color="#FACC15"></stop>
</linearGradient>
<linearGradient id="paint11_linear_1_29" x1="427.75" y1="351.936" x2="372.25" y2="448.064" gradientUnits="userSpaceOnUse">
<stop stop-color="#2DD4BF"></stop>
<stop offset="1" stop-color="#FACC15"></stop>
</linearGradient>
<linearGradient id="paint12_linear_1_29" x1="400" y1="381.5" x2="400" y2="418.5" gradientUnits="userSpaceOnUse">
<stop stop-color="#2DD4BF"></stop>
<stop offset="1" stop-color="#FACC15"></stop>
</linearGradient>
<clipPath id="clip0_1_29">
<path width="800" height="800" fill="white" d="M0 0 L800 0 L800 800 L0 800 Z" class="zIYZDmRq_13"></path>
</clipPath>
</defs>
<style data-made-with="vivus-instant">.zIYZDmRq_0{stroke-dasharray:2907 2909;stroke-dashoffset:2908;animation:zIYZDmRq_draw 2000ms linear 0ms forwards;}.zIYZDmRq_1{stroke-dasharray:2674 2676;stroke-dashoffset:2675;animation:zIYZDmRq_draw 2000ms linear 76ms forwards;}.zIYZDmRq_2{stroke-dasharray:2442 2444;stroke-dashoffset:2443;animation:zIYZDmRq_draw 2000ms linear 153ms forwards;}.zIYZDmRq_3{stroke-dasharray:2209 2211;stroke-dashoffset:2210;animation:zIYZDmRq_draw 2000ms linear 230ms forwards;}.zIYZDmRq_4{stroke-dasharray:1977 1979;stroke-dashoffset:1978;animation:zIYZDmRq_draw 2000ms linear 307ms forwards;}.zIYZDmRq_5{stroke-dasharray:1744 1746;stroke-dashoffset:1745;animation:zIYZDmRq_draw 2000ms linear 384ms forwards;}.zIYZDmRq_6{stroke-dasharray:1512 1514;stroke-dashoffset:1513;animation:zIYZDmRq_draw 2000ms linear 461ms forwards;}.zIYZDmRq_7{stroke-dasharray:1279 1281;stroke-dashoffset:1280;animation:zIYZDmRq_draw 2000ms linear 538ms forwards;}.zIYZDmRq_8{stroke-dasharray:1047 1049;stroke-dashoffset:1048;animation:zIYZDmRq_draw 2000ms linear 615ms forwards;}.zIYZDmRq_9{stroke-dasharray:814 816;stroke-dashoffset:815;animation:zIYZDmRq_draw 2000ms linear 692ms forwards;}.zIYZDmRq_10{stroke-dasharray:582 584;stroke-dashoffset:583;animation:zIYZDmRq_draw 2000ms linear 769ms forwards;}.zIYZDmRq_11{stroke-dasharray:349 351;stroke-dashoffset:350;animation:zIYZDmRq_draw 2000ms linear 846ms forwards;}.zIYZDmRq_12{stroke-dasharray:117 119;stroke-dashoffset:118;animation:zIYZDmRq_draw 2000ms linear 923ms forwards;}.zIYZDmRq_13{stroke-dasharray:3200 3202;stroke-dashoffset:3201;animation:zIYZDmRq_draw 2000ms linear 1000ms forwards;}@keyframes zIYZDmRq_draw{100%{stroke-dashoffset:0;}}@keyframes zIYZDmRq_fade{0%{stroke-opacity:1;}94.44444444444444%{stroke-opacity:1;}100%{stroke-opacity:0;}}</style></svg>
