<svg className="absolute top-1/2 left-1/2 -translate-x-1/2 -translate-y-1/2" width="1127.55" height="112.951" viewBox="0 0 1127.55 112.951" xmlns="http://www.w3.org/2000/svg" style=""><g id="svgGroup" stroke-linecap="round" fill-rule="nonzero" font-size="9pt" stroke="#facc15" stroke-width="0.65mm" fill="#dfdfdf" style="stroke:#facc15;stroke-width:0.65mm;fill:none"><path d="M 22.2 112.05 L 0 112.05 L 0 1.05 L 22.2 1.05 L 22.2 112.05 Z" id="0" class="hTMHcTQo_0"></path><path d="M 117 4.95 L 117 22.05 A 86.186 86.186 0 0 0 115.294 21.825 Q 112.925 21.535 109.684 21.245 A 290.554 290.554 0 0 0 108.6 21.15 Q 103.35 20.7 96.9 20.325 Q 90.45 19.95 83.55 19.95 A 42.501 42.501 0 0 0 78.342 20.248 Q 72.653 20.952 69.225 23.325 Q 65.112 26.173 63.188 32.331 A 30.168 30.168 0 0 0 62.55 34.725 A 59.5 59.5 0 0 0 61.601 40.32 Q 60.75 47.11 60.75 56.7 A 197.301 197.301 0 0 0 60.865 63.664 Q 61.085 69.872 61.725 74.4 A 47.513 47.513 0 0 0 62.524 78.706 Q 63.456 82.636 64.95 85.275 A 14.314 14.314 0 0 0 67.282 88.385 A 11.426 11.426 0 0 0 70.875 90.825 A 18.014 18.014 0 0 0 74.56 91.929 Q 76.311 92.268 78.33 92.363 A 34.393 34.393 0 0 0 79.95 92.4 A 65.381 65.381 0 0 0 89.597 91.707 A 58.991 58.991 0 0 0 91.725 91.35 Q 97.335 90.303 100.781 89.256 A 42.047 42.047 0 0 0 100.8 89.25 L 100.8 67.65 L 80.85 67.65 L 80.85 50.1 A 77.648 77.648 0 0 1 83.381 49.784 Q 85.631 49.538 88.35 49.35 A 414.973 414.973 0 0 1 95.086 48.943 A 468.429 468.429 0 0 1 97.425 48.825 A 197.124 197.124 0 0 1 104.302 48.614 A 173.705 173.705 0 0 1 106.5 48.6 A 527.775 527.775 0 0 1 110.921 48.618 Q 113.013 48.635 114.877 48.671 A 314.58 314.58 0 0 1 115.125 48.675 A 107.435 107.435 0 0 1 118.781 48.807 A 80.836 80.836 0 0 1 122.1 49.05 L 122.1 112.05 L 105.45 112.05 L 102.45 104.55 Q 98.1 107.1 90.15 109.95 Q 82.2 112.8 72.9 112.8 A 45.468 45.468 0 0 1 65.705 112.264 Q 61.838 111.644 58.662 110.305 A 23.819 23.819 0 0 1 55.725 108.825 A 26.884 26.884 0 0 1 45.842 98.452 A 32.498 32.498 0 0 1 45.3 97.425 Q 41.784 90.464 40.246 80.933 A 80.777 80.777 0 0 1 40.05 79.65 Q 38.55 69.3 38.55 56.55 A 177.346 177.346 0 0 1 38.929 44.661 Q 39.305 39.076 40.054 34.107 A 107.143 107.143 0 0 1 40.275 32.7 A 60.159 60.159 0 0 1 42.301 24.13 Q 43.936 19.018 46.425 14.925 Q 50.85 7.65 58.875 3.825 A 35.461 35.461 0 0 1 66.46 1.279 Q 72.216 0 79.5 0 Q 87.15 0 93.525 0.6 A 125.711 125.711 0 0 1 102.524 1.765 A 108.651 108.651 0 0 1 105.6 2.325 Q 111.3 3.45 117 4.95 Z" id="1" class="hTMHcTQo_1"></path><path d="M 164.25 110.775 A 30.895 30.895 0 0 1 154.066 106.196 A 28.853 28.853 0 0 1 149.925 102.675 A 28.457 28.457 0 0 1 145.292 96.243 Q 142.859 91.721 141.3 85.65 A 76.44 76.44 0 0 1 139.677 77.221 Q 138.45 68.414 138.45 56.7 A 178.58 178.58 0 0 1 138.796 45.217 Q 139.146 39.794 139.852 35.182 A 73.875 73.875 0 0 1 141.375 27.675 Q 144.3 16.5 150 10.5 A 29.337 29.337 0 0 1 163.192 2.546 A 35.255 35.255 0 0 1 164.25 2.25 A 64.318 64.318 0 0 1 172.892 0.635 Q 178.144 0 184.2 0 A 97.872 97.872 0 0 1 193.629 0.431 Q 199.341 0.985 204.15 2.25 A 30.744 30.744 0 0 1 214.144 6.818 A 28.574 28.574 0 0 1 218.4 10.5 Q 224.1 16.5 226.95 27.675 A 78.438 78.438 0 0 1 228.63 36.569 Q 229.215 40.917 229.508 45.95 A 185.84 185.84 0 0 1 229.8 56.7 A 186.31 186.31 0 0 1 229.522 67.197 Q 228.909 78.019 226.95 85.65 Q 224.1 96.75 218.4 102.675 A 29.031 29.031 0 0 1 205.469 110.413 A 35.047 35.047 0 0 1 204.15 110.775 Q 196.452 112.734 186.443 112.929 A 115.109 115.109 0 0 1 184.2 112.95 Q 174.002 112.95 166.085 111.21 A 57.653 57.653 0 0 1 164.25 110.775 Z M 184.2 93 A 50.232 50.232 0 0 0 188.923 92.792 Q 191.225 92.574 193.185 92.128 A 23.92 23.92 0 0 0 195.45 91.5 Q 199.95 90 202.575 86.175 A 18.011 18.011 0 0 0 204.327 82.882 Q 205.645 79.706 206.4 75.225 A 72.577 72.577 0 0 0 207.083 69.822 Q 207.6 64.182 207.6 56.7 A 197.634 197.634 0 0 0 207.483 49.669 Q 207.242 42.93 206.507 38.168 A 56.348 56.348 0 0 0 206.4 37.5 Q 205.2 30.3 202.575 26.475 Q 199.95 22.65 195.45 21.3 A 28.388 28.388 0 0 0 191.591 20.452 Q 189.555 20.14 187.197 20.022 A 60.041 60.041 0 0 0 184.2 19.95 Q 179.136 19.95 175.274 20.783 A 26.388 26.388 0 0 0 173.25 21.3 Q 168.75 22.65 165.975 26.475 A 17.671 17.671 0 0 0 164.105 29.819 Q 163.348 31.559 162.767 33.693 A 43.195 43.195 0 0 0 161.925 37.5 A 67.382 67.382 0 0 0 161.253 42.469 Q 160.69 48.053 160.653 55.615 A 219.741 219.741 0 0 0 160.65 56.7 A 192.668 192.668 0 0 0 160.76 63.408 Q 160.88 66.861 161.134 69.81 A 77.23 77.23 0 0 0 161.775 75.225 A 41.168 41.168 0 0 0 162.632 79.356 Q 163.188 81.451 163.93 83.156 A 16.956 16.956 0 0 0 165.6 86.175 Q 168.3 90 172.875 91.5 Q 177.45 93 184.2 93 Z" id="2" class="hTMHcTQo_2"></path><path d="M 268.35 112.05 L 246.15 112.05 L 246.15 1.05 L 292.05 1.05 A 48.773 48.773 0 0 1 300.325 1.729 A 41.544 41.544 0 0 1 304.35 2.625 Q 310.05 4.2 314.4 8.1 A 22.222 22.222 0 0 1 318.597 13.263 Q 320.104 15.774 321.225 18.9 A 36.783 36.783 0 0 1 322.733 24.624 Q 323.7 29.85 323.7 36.6 A 65.944 65.944 0 0 1 323.489 42.021 Q 323.137 46.275 322.2 49.65 Q 320.7 55.05 318.225 58.5 A 23.523 23.523 0 0 1 314.958 62.204 A 19.9 19.9 0 0 1 312.6 64.05 A 36.876 36.876 0 0 1 306.665 67.285 A 34.023 34.023 0 0 1 306.15 67.5 L 326.85 112.05 L 304.2 112.05 L 286.35 70.95 A 103.933 103.933 0 0 1 284.675 70.936 Q 283.533 70.918 282.225 70.875 Q 279.9 70.8 277.5 70.8 L 272.7 70.8 Q 270.3 70.8 268.35 70.65 L 268.35 112.05 Z M 268.35 21 L 268.35 53.1 L 288.15 53.1 A 20.631 20.631 0 0 0 291.084 52.901 A 15.787 15.787 0 0 0 293.55 52.35 Q 295.95 51.6 297.75 49.725 A 10.494 10.494 0 0 0 299.408 47.413 Q 299.979 46.353 300.406 45.071 A 18.18 18.18 0 0 0 300.525 44.7 Q 301.233 42.412 301.427 39.173 A 43.165 43.165 0 0 0 301.5 36.6 Q 301.5 31.95 300.525 28.875 A 14.43 14.43 0 0 0 299.617 26.639 Q 298.833 25.113 297.75 24.075 Q 295.95 22.35 293.55 21.675 Q 291.15 21 288.15 21 L 268.35 21 Z" id="3" class="hTMHcTQo_3"></path><path d="M 397.35 112.05 L 375.9 112.05 L 388.8 1.05 L 410.1 1.05 L 435.6 86.1 L 460.95 1.05 L 482.1 1.05 L 495.15 112.05 L 473.7 112.05 L 464.1 30.3 L 467.55 30.6 L 445.8 112.05 L 424.95 112.05 L 402.9 30.6 L 406.65 30.45 L 397.35 112.05 Z" id="5" class="hTMHcTQo_4"></path><path d="M 527.1 112.05 L 504.3 112.05 L 539.1 1.05 L 567.15 1.05 L 601.95 112.05 L 578.85 112.05 L 571.8 88.8 L 534 88.8 L 527.1 112.05 Z M 552.9 20.1 L 539.25 68.85 L 566.55 68.85 L 552.9 20.1 Z" id="6" class="hTMHcTQo_5"></path><path d="M 685.2 112.05 L 610.2 112.05 L 610.2 94.2 L 658.05 21 L 610.2 21 L 610.2 1.05 L 685.2 1.05 L 685.2 18.75 L 637.35 92.1 L 685.2 92.1 L 685.2 112.05 Z" id="7" class="hTMHcTQo_6"></path><path d="M 722.4 112.05 L 700.2 112.05 L 700.2 1.05 L 722.4 1.05 L 722.4 47.25 L 764.25 47.25 L 764.25 1.05 L 786.6 1.05 L 786.6 112.05 L 764.25 112.05 L 764.25 67.2 L 722.4 67.2 L 722.4 112.05 Z" id="8" class="hTMHcTQo_7"></path><path d="M 827.85 112.05 L 805.65 112.05 L 805.65 1.05 L 827.85 1.05 L 827.85 112.05 Z" id="9" class="hTMHcTQo_8"></path><path d="M 892.5 112.05 L 870.3 112.05 L 870.3 21 L 839.85 21 L 839.85 1.05 L 923.1 1.05 L 923.1 21 L 892.5 21 L 892.5 112.05 Z" id="10" class="hTMHcTQo_9"></path><path d="M 957.3 110.775 A 30.895 30.895 0 0 1 947.116 106.196 A 28.853 28.853 0 0 1 942.975 102.675 A 28.457 28.457 0 0 1 938.342 96.243 Q 935.909 91.721 934.35 85.65 A 76.44 76.44 0 0 1 932.727 77.221 Q 931.5 68.414 931.5 56.7 A 178.58 178.58 0 0 1 931.846 45.217 Q 932.196 39.794 932.902 35.182 A 73.875 73.875 0 0 1 934.425 27.675 Q 937.35 16.5 943.05 10.5 A 29.337 29.337 0 0 1 956.242 2.546 A 35.255 35.255 0 0 1 957.3 2.25 A 64.318 64.318 0 0 1 965.942 0.635 Q 971.194 0 977.25 0 A 97.872 97.872 0 0 1 986.679 0.431 Q 992.391 0.985 997.2 2.25 A 30.744 30.744 0 0 1 1007.194 6.818 A 28.574 28.574 0 0 1 1011.45 10.5 Q 1017.15 16.5 1020 27.675 A 78.438 78.438 0 0 1 1021.68 36.569 Q 1022.265 40.917 1022.558 45.95 A 185.84 185.84 0 0 1 1022.85 56.7 A 186.31 186.31 0 0 1 1022.572 67.197 Q 1021.959 78.019 1020 85.65 Q 1017.15 96.75 1011.45 102.675 A 29.031 29.031 0 0 1 998.519 110.413 A 35.047 35.047 0 0 1 997.2 110.775 Q 989.502 112.734 979.493 112.929 A 115.109 115.109 0 0 1 977.25 112.95 Q 967.052 112.95 959.135 111.21 A 57.653 57.653 0 0 1 957.3 110.775 Z M 977.25 93 A 50.232 50.232 0 0 0 981.973 92.792 Q 984.275 92.574 986.235 92.128 A 23.92 23.92 0 0 0 988.5 91.5 Q 993 90 995.625 86.175 A 18.011 18.011 0 0 0 997.377 82.882 Q 998.695 79.706 999.45 75.225 A 72.577 72.577 0 0 0 1000.133 69.822 Q 1000.65 64.182 1000.65 56.7 A 197.634 197.634 0 0 0 1000.533 49.669 Q 1000.292 42.93 999.557 38.168 A 56.348 56.348 0 0 0 999.45 37.5 Q 998.25 30.3 995.625 26.475 Q 993 22.65 988.5 21.3 A 28.388 28.388 0 0 0 984.641 20.452 Q 982.605 20.14 980.247 20.022 A 60.041 60.041 0 0 0 977.25 19.95 Q 972.186 19.95 968.324 20.783 A 26.388 26.388 0 0 0 966.3 21.3 Q 961.8 22.65 959.025 26.475 A 17.671 17.671 0 0 0 957.155 29.819 Q 956.398 31.559 955.817 33.693 A 43.195 43.195 0 0 0 954.975 37.5 A 67.382 67.382 0 0 0 954.303 42.469 Q 953.74 48.053 953.703 55.615 A 219.741 219.741 0 0 0 953.7 56.7 A 192.668 192.668 0 0 0 953.81 63.408 Q 953.93 66.861 954.184 69.81 A 77.23 77.23 0 0 0 954.825 75.225 A 41.168 41.168 0 0 0 955.682 79.356 Q 956.238 81.451 956.98 83.156 A 16.956 16.956 0 0 0 958.65 86.175 Q 961.35 90 965.925 91.5 Q 970.5 93 977.25 93 Z" id="11" class="hTMHcTQo_10"></path><path d="M 1092.75 112.05 L 1064.7 112.05 L 1029.9 1.05 L 1052.85 1.05 L 1078.8 88.05 L 1104.75 1.05 L 1127.55 1.05 L 1092.75 112.05 Z" id="12" class="hTMHcTQo_11"></path></g><style data-made-with="vivus-instant">.hTMHcTQo_0{stroke-dasharray:267 269;stroke-dashoffset:268;animation:hTMHcTQo_draw 2000ms ease-in-out 0ms forwards;}.hTMHcTQo_1{stroke-dasharray:583 585;stroke-dashoffset:584;animation:hTMHcTQo_draw 2000ms ease-in-out 90ms forwards;}.hTMHcTQo_2{stroke-dasharray:546 548;stroke-dashoffset:547;animation:hTMHcTQo_draw 2000ms ease-in-out 181ms forwards;}.hTMHcTQo_3{stroke-dasharray:569 571;stroke-dashoffset:570;animation:hTMHcTQo_draw 2000ms ease-in-out 272ms forwards;}.hTMHcTQo_4{stroke-dasharray:848 850;stroke-dashoffset:849;animation:hTMHcTQo_draw 2000ms ease-in-out 363ms forwards;}.hTMHcTQo_5{stroke-dasharray:522 524;stroke-dashoffset:523;animation:hTMHcTQo_draw 2000ms ease-in-out 454ms forwards;}.hTMHcTQo_6{stroke-dasharray:497 499;stroke-dashoffset:498;animation:hTMHcTQo_draw 2000ms ease-in-out 545ms forwards;}.hTMHcTQo_7{stroke-dasharray:577 579;stroke-dashoffset:578;animation:hTMHcTQo_draw 2000ms ease-in-out 636ms forwards;}.hTMHcTQo_8{stroke-dasharray:267 269;stroke-dashoffset:268;animation:hTMHcTQo_draw 2000ms ease-in-out 727ms forwards;}.hTMHcTQo_9{stroke-dasharray:389 391;stroke-dashoffset:390;animation:hTMHcTQo_draw 2000ms ease-in-out 818ms forwards;}.hTMHcTQo_10{stroke-dasharray:546 548;stroke-dashoffset:547;animation:hTMHcTQo_draw 2000ms ease-in-out 909ms forwards;}.hTMHcTQo_11{stroke-dasharray:489 491;stroke-dashoffset:490;animation:hTMHcTQo_draw 2000ms ease-in-out 1000ms forwards;}@keyframes hTMHcTQo_draw{100%{stroke-dashoffset:0;}}@keyframes hTMHcTQo_fade{0%{stroke-opacity:1;}94.44444444444444%{stroke-opacity:1;}100%{stroke-opacity:0;}}</style></svg>