<svg className="absolute bottom-1/3 left-1/2 " width="621.201" height="35.601" viewBox="0 0 621.201 35.601" xmlns="http://www.w3.org/2000/svg" style=""><g id="svgGroup" stroke-linecap="round" fill-rule="nonzero" font-size="9pt" stroke="#facc15" stroke-width="0.45mm" fill="none" style="stroke:#facc15;stroke-width:0.45mm;fill:none"><path d="M 3.701 12.351 L 3.701 17.251 L 20.401 17.251 L 20.401 20.451 L 3.701 20.451 L 3.701 35.301 L 0.001 35.301 L 0.001 12.301 A 14.796 14.796 0 0 1 0.466 8.488 A 10.558 10.558 0 0 1 3.601 3.276 A 11.798 11.798 0 0 1 8.258 0.72 Q 10.68 0.001 13.751 0.001 A 23.852 23.852 0 0 1 17.949 0.348 Q 20.259 0.762 22.122 1.667 A 12.664 12.664 0 0 1 23.951 2.751 L 22.601 5.801 Q 19.289 3.365 14.174 3.302 A 22.161 22.161 0 0 0 13.901 3.301 Q 10.632 3.301 8.421 4.237 A 7.556 7.556 0 0 0 6.226 5.626 A 7.485 7.485 0 0 0 4.071 9.286 Q 3.701 10.666 3.701 12.351 Z" id="0" vector-effect="non-scaling-stroke" class="KuHONxGN_0"></path><path d="M 58.351 35.301 L 54.301 35.301 L 46.301 24.051 A 25.043 25.043 0 0 1 43.862 24.198 A 27.676 27.676 0 0 1 43.501 24.201 L 34.101 24.201 L 34.101 35.301 L 30.401 35.301 L 30.401 0.301 L 43.501 0.301 Q 50.201 0.301 54.001 3.501 A 10.475 10.475 0 0 1 57.708 10.609 A 14.978 14.978 0 0 1 57.801 12.301 Q 57.801 16.401 55.726 19.226 A 10.796 10.796 0 0 1 51.747 22.513 A 14.291 14.291 0 0 1 49.801 23.301 L 58.351 35.301 Z M 43.401 3.501 L 34.101 3.501 L 34.101 21.051 L 43.401 21.051 A 18.854 18.854 0 0 0 46.411 20.826 Q 48.007 20.568 49.286 20.011 A 8.455 8.455 0 0 0 51.351 18.751 A 7.503 7.503 0 0 0 53.983 13.94 A 10.965 10.965 0 0 0 54.101 12.301 A 10.489 10.489 0 0 0 53.776 9.612 A 7.258 7.258 0 0 0 51.351 5.776 Q 48.601 3.501 43.401 3.501 Z" id="1" vector-effect="non-scaling-stroke" class="KuHONxGN_1"></path><path d="M 75.445 34.599 A 18.287 18.287 0 0 1 72.426 33.276 Q 68.201 30.951 65.826 26.901 A 17.425 17.425 0 0 1 63.471 18.739 A 20.901 20.901 0 0 1 63.451 17.801 A 18.453 18.453 0 0 1 64.425 11.741 A 16.881 16.881 0 0 1 65.826 8.701 Q 68.201 4.651 72.426 2.326 A 18.935 18.935 0 0 1 80.725 0.029 A 22.576 22.576 0 0 1 81.851 0.001 A 20.235 20.235 0 0 1 87.807 0.855 A 17.976 17.976 0 0 1 91.226 2.301 Q 95.401 4.601 97.801 8.676 A 17.499 17.499 0 0 1 100.191 17.173 A 20.878 20.878 0 0 1 100.201 17.801 Q 100.201 22.851 97.801 26.926 Q 95.401 31.001 91.226 33.301 A 18.659 18.659 0 0 1 83.451 35.545 A 22.491 22.491 0 0 1 81.851 35.601 A 20.059 20.059 0 0 1 75.445 34.599 Z M 81.851 32.301 A 15.813 15.813 0 0 0 86.839 31.531 A 14.33 14.33 0 0 0 89.351 30.426 Q 92.701 28.551 94.601 25.226 A 14.548 14.548 0 0 0 96.489 18.437 A 17.315 17.315 0 0 0 96.501 17.801 Q 96.501 13.701 94.601 10.376 Q 92.701 7.051 89.351 5.176 A 14.828 14.828 0 0 0 82.876 3.33 A 17.74 17.74 0 0 0 81.851 3.301 A 15.869 15.869 0 0 0 76.737 4.108 A 14.544 14.544 0 0 0 74.326 5.176 Q 70.951 7.051 69.026 10.376 A 14.432 14.432 0 0 0 67.108 17.291 A 17.164 17.164 0 0 0 67.101 17.801 A 15.034 15.034 0 0 0 68.01 23.072 A 14.037 14.037 0 0 0 69.026 25.226 Q 70.951 28.551 74.326 30.426 A 15.04 15.04 0 0 0 81.079 32.284 A 17.906 17.906 0 0 0 81.851 32.301 Z" id="2" vector-effect="non-scaling-stroke" class="KuHONxGN_2"></path><path d="M 137.351 14.451 L 137.351 35.301 L 133.651 35.301 L 133.651 14.551 Q 133.651 10.73 132.347 8.188 A 8.5 8.5 0 0 0 130.901 6.151 A 8.987 8.987 0 0 0 126.474 3.669 Q 124.979 3.301 123.201 3.301 A 14.382 14.382 0 0 0 119.897 3.658 A 9.497 9.497 0 0 0 115.101 6.326 A 9.48 9.48 0 0 0 112.995 9.896 Q 112.499 11.357 112.312 13.142 A 21.788 21.788 0 0 0 112.201 15.401 L 112.201 35.301 L 108.501 35.301 L 108.501 0.301 L 112.051 0.301 L 112.051 6.201 A 11.273 11.273 0 0 1 120.199 0.341 A 18.948 18.948 0 0 1 123.901 0.001 A 17.024 17.024 0 0 1 128.035 0.475 A 11.648 11.648 0 0 1 133.776 3.751 A 12.173 12.173 0 0 1 136.61 8.788 Q 137.351 11.288 137.351 14.451 Z" id="3" vector-effect="non-scaling-stroke" class="KuHONxGN_3"></path><path d="M 171.901 3.851 L 170.551 6.751 Q 165.401 3.751 159.151 3.301 L 159.151 35.301 L 155.451 35.301 L 155.451 3.301 Q 149.301 3.701 144.001 6.751 L 142.651 3.851 A 27.808 27.808 0 0 1 155.995 0.024 A 33.32 33.32 0 0 1 157.251 0.001 A 30.099 30.099 0 0 1 165.918 1.211 A 26.034 26.034 0 0 1 171.901 3.851 Z" id="4" vector-effect="non-scaling-stroke" class="KuHONxGN_4"></path><path d="M 214.201 28.501 L 215.601 31.301 A 12.256 12.256 0 0 1 212.914 33.218 Q 211.679 33.88 210.187 34.375 A 21.039 21.039 0 0 1 209.876 34.476 A 24.195 24.195 0 0 1 205.104 35.443 A 30.508 30.508 0 0 1 201.951 35.601 Q 198.078 35.601 195.181 34.715 A 15.263 15.263 0 0 1 194.126 34.351 A 13.49 13.49 0 0 1 191.81 33.204 Q 190.46 32.354 189.545 31.246 A 8.158 8.158 0 0 1 189.276 30.901 Q 187.651 28.701 187.651 25.851 A 8.79 8.79 0 0 1 188.09 23.022 A 7.609 7.609 0 0 1 189.526 20.501 A 9.489 9.489 0 0 1 193.616 17.717 A 11.81 11.81 0 0 1 194.451 17.451 A 8.404 8.404 0 0 1 191.87 15.926 A 7.738 7.738 0 0 1 190.551 14.426 A 8.184 8.184 0 0 1 189.208 10.658 A 10.388 10.388 0 0 1 189.151 9.551 Q 189.151 6.901 190.676 4.726 A 8.79 8.79 0 0 1 192.882 2.564 Q 193.861 1.882 195.098 1.351 A 15.335 15.335 0 0 1 195.276 1.276 Q 197.993 0.149 201.707 0.018 A 28.204 28.204 0 0 1 202.701 0.001 Q 205.901 0.001 208.926 0.726 Q 211.951 1.451 214.101 2.801 L 212.951 5.751 Q 208.351 3.151 202.851 3.151 A 20.417 20.417 0 0 0 200.074 3.327 Q 198.685 3.518 197.551 3.917 A 8.383 8.383 0 0 0 195.426 5.001 A 6.684 6.684 0 0 0 193.856 6.543 A 5.478 5.478 0 0 0 192.851 9.801 A 6.698 6.698 0 0 0 193.119 11.747 A 5.073 5.073 0 0 0 194.926 14.351 A 6.931 6.931 0 0 0 197.116 15.459 Q 198.095 15.764 199.279 15.88 A 15.639 15.639 0 0 0 200.801 15.951 L 209.501 15.951 L 209.501 19.151 L 200.651 19.151 A 18.507 18.507 0 0 0 198.023 19.326 Q 196.64 19.524 195.508 19.949 A 8.507 8.507 0 0 0 193.851 20.776 A 5.216 5.216 0 0 0 191.424 24.547 A 7.256 7.256 0 0 0 191.351 25.601 A 5.629 5.629 0 0 0 193.291 29.991 A 7.506 7.506 0 0 0 194.076 30.601 A 9.102 9.102 0 0 0 196.481 31.728 Q 198.788 32.451 202.101 32.451 A 23.021 23.021 0 0 0 206.952 31.954 A 20.171 20.171 0 0 0 209.001 31.401 Q 212.144 30.369 214.13 28.566 A 10.622 10.622 0 0 0 214.201 28.501 Z" id="6" vector-effect="non-scaling-stroke" class="KuHONxGN_5"></path><path d="M 251.151 14.451 L 251.151 35.301 L 247.451 35.301 L 247.451 14.551 Q 247.451 10.73 246.147 8.188 A 8.5 8.5 0 0 0 244.701 6.151 A 8.987 8.987 0 0 0 240.274 3.669 Q 238.779 3.301 237.001 3.301 A 14.382 14.382 0 0 0 233.697 3.658 A 9.497 9.497 0 0 0 228.901 6.326 A 9.48 9.48 0 0 0 226.795 9.896 Q 226.299 11.357 226.112 13.142 A 21.788 21.788 0 0 0 226.001 15.401 L 226.001 35.301 L 222.301 35.301 L 222.301 0.301 L 225.851 0.301 L 225.851 6.201 A 11.273 11.273 0 0 1 233.999 0.341 A 18.948 18.948 0 0 1 237.701 0.001 A 17.024 17.024 0 0 1 241.835 0.475 A 11.648 11.648 0 0 1 247.576 3.751 A 12.173 12.173 0 0 1 250.41 8.788 Q 251.151 11.288 251.151 14.451 Z" id="7" vector-effect="non-scaling-stroke" class="KuHONxGN_6"></path><path d="M 262.251 35.301 L 262.251 0.301 L 276.501 0.301 A 23.555 23.555 0 0 1 281.726 0.857 A 18.781 18.781 0 0 1 286.301 2.526 Q 290.551 4.751 292.901 8.726 A 16.949 16.949 0 0 1 295.168 15.928 A 20.86 20.86 0 0 1 295.251 17.801 A 18.88 18.88 0 0 1 294.507 23.182 A 16.338 16.338 0 0 1 292.901 26.876 Q 290.551 30.851 286.301 33.076 Q 282.051 35.301 276.501 35.301 L 262.251 35.301 Z M 265.951 32.101 L 276.301 32.101 Q 280.901 32.101 284.351 30.276 Q 287.801 28.451 289.701 25.226 A 13.753 13.753 0 0 0 291.503 19.654 A 17.223 17.223 0 0 0 291.601 17.801 A 15.782 15.782 0 0 0 291.064 13.613 A 13.247 13.247 0 0 0 289.701 10.376 Q 287.801 7.151 284.351 5.326 A 15.517 15.517 0 0 0 279.458 3.736 A 20.393 20.393 0 0 0 276.301 3.501 L 265.951 3.501 L 265.951 32.101 Z" id="8" vector-effect="non-scaling-stroke" class="KuHONxGN_7"></path><path d="M 316.651 35.301 L 316.651 0.301 L 330.901 0.301 A 23.555 23.555 0 0 1 336.126 0.857 A 18.781 18.781 0 0 1 340.701 2.526 Q 344.951 4.751 347.301 8.726 A 16.949 16.949 0 0 1 349.568 15.928 A 20.86 20.86 0 0 1 349.651 17.801 A 18.88 18.88 0 0 1 348.907 23.182 A 16.338 16.338 0 0 1 347.301 26.876 Q 344.951 30.851 340.701 33.076 Q 336.451 35.301 330.901 35.301 L 316.651 35.301 Z M 320.351 32.101 L 330.701 32.101 Q 335.301 32.101 338.751 30.276 Q 342.201 28.451 344.101 25.226 A 13.753 13.753 0 0 0 345.903 19.654 A 17.223 17.223 0 0 0 346.001 17.801 A 15.782 15.782 0 0 0 345.464 13.613 A 13.247 13.247 0 0 0 344.101 10.376 Q 342.201 7.151 338.751 5.326 A 15.517 15.517 0 0 0 333.858 3.736 A 20.393 20.393 0 0 0 330.701 3.501 L 320.351 3.501 L 320.351 32.101 Z" id="10" vector-effect="non-scaling-stroke" class="KuHONxGN_8"></path><path d="M 381.551 28.501 L 382.951 31.301 A 12.256 12.256 0 0 1 380.264 33.218 Q 379.029 33.88 377.537 34.375 A 21.039 21.039 0 0 1 377.226 34.476 A 24.195 24.195 0 0 1 372.454 35.443 A 30.508 30.508 0 0 1 369.301 35.601 Q 365.428 35.601 362.531 34.715 A 15.263 15.263 0 0 1 361.476 34.351 A 13.49 13.49 0 0 1 359.16 33.204 Q 357.81 32.354 356.895 31.246 A 8.158 8.158 0 0 1 356.626 30.901 Q 355.001 28.701 355.001 25.851 A 8.79 8.79 0 0 1 355.44 23.022 A 7.609 7.609 0 0 1 356.876 20.501 A 9.489 9.489 0 0 1 360.966 17.717 A 11.81 11.81 0 0 1 361.801 17.451 A 8.404 8.404 0 0 1 359.22 15.926 A 7.738 7.738 0 0 1 357.901 14.426 A 8.184 8.184 0 0 1 356.558 10.658 A 10.388 10.388 0 0 1 356.501 9.551 Q 356.501 6.901 358.026 4.726 A 8.79 8.79 0 0 1 360.232 2.564 Q 361.211 1.882 362.448 1.351 A 15.335 15.335 0 0 1 362.626 1.276 Q 365.343 0.149 369.057 0.018 A 28.204 28.204 0 0 1 370.051 0.001 Q 373.251 0.001 376.276 0.726 Q 379.301 1.451 381.451 2.801 L 380.301 5.751 Q 375.701 3.151 370.201 3.151 A 20.417 20.417 0 0 0 367.424 3.327 Q 366.035 3.518 364.901 3.917 A 8.383 8.383 0 0 0 362.776 5.001 A 6.684 6.684 0 0 0 361.206 6.543 A 5.478 5.478 0 0 0 360.201 9.801 A 6.698 6.698 0 0 0 360.469 11.747 A 5.073 5.073 0 0 0 362.276 14.351 A 6.931 6.931 0 0 0 364.466 15.459 Q 365.445 15.764 366.629 15.88 A 15.639 15.639 0 0 0 368.151 15.951 L 376.851 15.951 L 376.851 19.151 L 368.001 19.151 A 18.507 18.507 0 0 0 365.373 19.326 Q 363.99 19.524 362.858 19.949 A 8.507 8.507 0 0 0 361.201 20.776 A 5.216 5.216 0 0 0 358.774 24.547 A 7.256 7.256 0 0 0 358.701 25.601 A 5.629 5.629 0 0 0 360.641 29.991 A 7.506 7.506 0 0 0 361.426 30.601 A 9.102 9.102 0 0 0 363.831 31.728 Q 366.138 32.451 369.451 32.451 A 23.021 23.021 0 0 0 374.302 31.954 A 20.171 20.171 0 0 0 376.351 31.401 Q 379.494 30.369 381.48 28.566 A 10.622 10.622 0 0 0 381.551 28.501 Z" id="11" vector-effect="non-scaling-stroke" class="KuHONxGN_9"></path><path d="M 415.001 0.301 L 418.751 0.301 L 403.251 35.301 L 399.601 35.301 L 384.101 0.301 L 388.101 0.301 L 401.501 30.701 L 415.001 0.301 Z" id="12" vector-effect="non-scaling-stroke" class="KuHONxGN_10"></path><path d="M 447.101 28.501 L 448.501 31.301 A 12.256 12.256 0 0 1 445.814 33.218 Q 444.579 33.88 443.087 34.375 A 21.039 21.039 0 0 1 442.776 34.476 A 24.195 24.195 0 0 1 438.004 35.443 A 30.508 30.508 0 0 1 434.851 35.601 Q 430.978 35.601 428.081 34.715 A 15.263 15.263 0 0 1 427.026 34.351 A 13.49 13.49 0 0 1 424.71 33.204 Q 423.36 32.354 422.445 31.246 A 8.158 8.158 0 0 1 422.176 30.901 Q 420.551 28.701 420.551 25.851 A 8.79 8.79 0 0 1 420.99 23.022 A 7.609 7.609 0 0 1 422.426 20.501 A 9.489 9.489 0 0 1 426.516 17.717 A 11.81 11.81 0 0 1 427.351 17.451 A 8.404 8.404 0 0 1 424.77 15.926 A 7.738 7.738 0 0 1 423.451 14.426 A 8.184 8.184 0 0 1 422.108 10.658 A 10.388 10.388 0 0 1 422.051 9.551 Q 422.051 6.901 423.576 4.726 A 8.79 8.79 0 0 1 425.782 2.564 Q 426.761 1.882 427.998 1.351 A 15.335 15.335 0 0 1 428.176 1.276 Q 430.893 0.149 434.607 0.018 A 28.204 28.204 0 0 1 435.601 0.001 Q 438.801 0.001 441.826 0.726 Q 444.851 1.451 447.001 2.801 L 445.851 5.751 Q 441.251 3.151 435.751 3.151 A 20.417 20.417 0 0 0 432.974 3.327 Q 431.585 3.518 430.451 3.917 A 8.383 8.383 0 0 0 428.326 5.001 A 6.684 6.684 0 0 0 426.756 6.543 A 5.478 5.478 0 0 0 425.751 9.801 A 6.698 6.698 0 0 0 426.019 11.747 A 5.073 5.073 0 0 0 427.826 14.351 A 6.931 6.931 0 0 0 430.016 15.459 Q 430.995 15.764 432.179 15.88 A 15.639 15.639 0 0 0 433.701 15.951 L 442.401 15.951 L 442.401 19.151 L 433.551 19.151 A 18.507 18.507 0 0 0 430.923 19.326 Q 429.54 19.524 428.408 19.949 A 8.507 8.507 0 0 0 426.751 20.776 A 5.216 5.216 0 0 0 424.324 24.547 A 7.256 7.256 0 0 0 424.251 25.601 A 5.629 5.629 0 0 0 426.191 29.991 A 7.506 7.506 0 0 0 426.976 30.601 A 9.102 9.102 0 0 0 429.381 31.728 Q 431.688 32.451 435.001 32.451 A 23.021 23.021 0 0 0 439.852 31.954 A 20.171 20.171 0 0 0 441.901 31.401 Q 445.044 30.369 447.03 28.566 A 10.622 10.622 0 0 0 447.101 28.501 Z" id="13" vector-effect="non-scaling-stroke" class="KuHONxGN_11"></path><path d="M 455.201 35.301 L 455.201 0.301 L 458.901 0.301 L 458.901 32.101 L 478.501 32.101 L 478.501 35.301 L 455.201 35.301 Z" id="14" vector-effect="non-scaling-stroke" class="KuHONxGN_12"></path><path d="M 492.845 34.599 A 18.287 18.287 0 0 1 489.826 33.276 Q 485.601 30.951 483.226 26.901 A 17.425 17.425 0 0 1 480.871 18.739 A 20.901 20.901 0 0 1 480.851 17.801 A 18.453 18.453 0 0 1 481.825 11.741 A 16.881 16.881 0 0 1 483.226 8.701 Q 485.601 4.651 489.826 2.326 A 18.935 18.935 0 0 1 498.125 0.029 A 22.576 22.576 0 0 1 499.251 0.001 A 20.235 20.235 0 0 1 505.207 0.855 A 17.976 17.976 0 0 1 508.626 2.301 Q 512.801 4.601 515.201 8.676 A 17.499 17.499 0 0 1 517.591 17.173 A 20.878 20.878 0 0 1 517.601 17.801 Q 517.601 22.851 515.201 26.926 Q 512.801 31.001 508.626 33.301 A 18.659 18.659 0 0 1 500.851 35.545 A 22.491 22.491 0 0 1 499.251 35.601 A 20.059 20.059 0 0 1 492.845 34.599 Z M 499.251 32.301 A 15.813 15.813 0 0 0 504.239 31.531 A 14.33 14.33 0 0 0 506.751 30.426 Q 510.101 28.551 512.001 25.226 A 14.548 14.548 0 0 0 513.889 18.437 A 17.315 17.315 0 0 0 513.901 17.801 Q 513.901 13.701 512.001 10.376 Q 510.101 7.051 506.751 5.176 A 14.828 14.828 0 0 0 500.276 3.33 A 17.74 17.74 0 0 0 499.251 3.301 A 15.869 15.869 0 0 0 494.137 4.108 A 14.544 14.544 0 0 0 491.726 5.176 Q 488.351 7.051 486.426 10.376 A 14.432 14.432 0 0 0 484.508 17.291 A 17.164 17.164 0 0 0 484.501 17.801 A 15.034 15.034 0 0 0 485.41 23.072 A 14.037 14.037 0 0 0 486.426 25.226 Q 488.351 28.551 491.726 30.426 A 15.04 15.04 0 0 0 498.479 32.284 A 17.906 17.906 0 0 0 499.251 32.301 Z" id="15" vector-effect="non-scaling-stroke" class="KuHONxGN_13"></path><path d="M 539.001 24.251 L 529.601 24.251 L 529.601 35.301 L 525.901 35.301 L 525.901 0.301 L 539.001 0.301 Q 545.701 0.301 549.501 3.501 A 10.475 10.475 0 0 1 553.208 10.609 A 14.978 14.978 0 0 1 553.301 12.301 A 13.233 13.233 0 0 1 552.768 16.155 A 10.112 10.112 0 0 1 549.501 21.076 A 12.761 12.761 0 0 1 544.811 23.506 Q 542.927 24.053 540.677 24.198 A 26.02 26.02 0 0 1 539.001 24.251 Z M 538.901 3.501 L 529.601 3.501 L 529.601 21.001 L 538.901 21.001 A 19.057 19.057 0 0 0 541.911 20.779 Q 543.483 20.527 544.747 19.989 A 8.49 8.49 0 0 0 546.851 18.726 Q 549.601 16.451 549.601 12.301 A 10.489 10.489 0 0 0 549.276 9.612 A 7.258 7.258 0 0 0 546.851 5.776 Q 544.101 3.501 538.901 3.501 Z" id="16" vector-effect="non-scaling-stroke" class="KuHONxGN_14"></path><path d="M 585.151 28.501 L 586.551 31.301 A 12.256 12.256 0 0 1 583.864 33.218 Q 582.629 33.88 581.137 34.375 A 21.039 21.039 0 0 1 580.826 34.476 A 24.195 24.195 0 0 1 576.054 35.443 A 30.508 30.508 0 0 1 572.901 35.601 Q 569.028 35.601 566.131 34.715 A 15.263 15.263 0 0 1 565.076 34.351 A 13.49 13.49 0 0 1 562.76 33.204 Q 561.41 32.354 560.495 31.246 A 8.158 8.158 0 0 1 560.226 30.901 Q 558.601 28.701 558.601 25.851 A 8.79 8.79 0 0 1 559.04 23.022 A 7.609 7.609 0 0 1 560.476 20.501 A 9.489 9.489 0 0 1 564.566 17.717 A 11.81 11.81 0 0 1 565.401 17.451 A 8.404 8.404 0 0 1 562.82 15.926 A 7.738 7.738 0 0 1 561.501 14.426 A 8.184 8.184 0 0 1 560.158 10.658 A 10.388 10.388 0 0 1 560.101 9.551 Q 560.101 6.901 561.626 4.726 A 8.79 8.79 0 0 1 563.832 2.564 Q 564.811 1.882 566.048 1.351 A 15.335 15.335 0 0 1 566.226 1.276 Q 568.943 0.149 572.657 0.018 A 28.204 28.204 0 0 1 573.651 0.001 Q 576.851 0.001 579.876 0.726 Q 582.901 1.451 585.051 2.801 L 583.901 5.751 Q 579.301 3.151 573.801 3.151 A 20.417 20.417 0 0 0 571.024 3.327 Q 569.635 3.518 568.501 3.917 A 8.383 8.383 0 0 0 566.376 5.001 A 6.684 6.684 0 0 0 564.806 6.543 A 5.478 5.478 0 0 0 563.801 9.801 A 6.698 6.698 0 0 0 564.069 11.747 A 5.073 5.073 0 0 0 565.876 14.351 A 6.931 6.931 0 0 0 568.066 15.459 Q 569.045 15.764 570.229 15.88 A 15.639 15.639 0 0 0 571.751 15.951 L 580.451 15.951 L 580.451 19.151 L 571.601 19.151 A 18.507 18.507 0 0 0 568.973 19.326 Q 567.59 19.524 566.458 19.949 A 8.507 8.507 0 0 0 564.801 20.776 A 5.216 5.216 0 0 0 562.374 24.547 A 7.256 7.256 0 0 0 562.301 25.601 A 5.629 5.629 0 0 0 564.241 29.991 A 7.506 7.506 0 0 0 565.026 30.601 A 9.102 9.102 0 0 0 567.431 31.728 Q 569.738 32.451 573.051 32.451 A 23.021 23.021 0 0 0 577.902 31.954 A 20.171 20.171 0 0 0 579.951 31.401 Q 583.094 30.369 585.08 28.566 A 10.622 10.622 0 0 0 585.151 28.501 Z" id="17" vector-effect="non-scaling-stroke" class="KuHONxGN_15"></path><path d="M 621.201 35.301 L 617.151 35.301 L 609.151 24.051 A 25.043 25.043 0 0 1 606.712 24.198 A 27.676 27.676 0 0 1 606.351 24.201 L 596.951 24.201 L 596.951 35.301 L 593.251 35.301 L 593.251 0.301 L 606.351 0.301 Q 613.051 0.301 616.851 3.501 A 10.475 10.475 0 0 1 620.558 10.609 A 14.978 14.978 0 0 1 620.651 12.301 Q 620.651 16.401 618.576 19.226 A 10.796 10.796 0 0 1 614.597 22.513 A 14.291 14.291 0 0 1 612.651 23.301 L 621.201 35.301 Z M 606.251 3.501 L 596.951 3.501 L 596.951 21.051 L 606.251 21.051 A 18.854 18.854 0 0 0 609.261 20.826 Q 610.857 20.568 612.136 20.011 A 8.455 8.455 0 0 0 614.201 18.751 A 7.503 7.503 0 0 0 616.833 13.94 A 10.965 10.965 0 0 0 616.951 12.301 A 10.489 10.489 0 0 0 616.626 9.612 A 7.258 7.258 0 0 0 614.201 5.776 Q 611.451 3.501 606.251 3.501 Z" id="18" vector-effect="non-scaling-stroke" class="KuHONxGN_16"></path></g><style data-made-with="vivus-instant">.KuHONxGN_0{stroke-dasharray:143 145;stroke-dashoffset:144;animation:KuHONxGN_draw 2000ms ease-in-out 0ms forwards;}.KuHONxGN_1{stroke-dasharray:212 214;stroke-dashoffset:213;animation:KuHONxGN_draw 2000ms ease-in-out 62ms forwards;}.KuHONxGN_2{stroke-dasharray:207 209;stroke-dashoffset:208;animation:KuHONxGN_draw 2000ms ease-in-out 125ms forwards;}.KuHONxGN_3{stroke-dasharray:187 189;stroke-dashoffset:188;animation:KuHONxGN_draw 2000ms ease-in-out 187ms forwards;}.KuHONxGN_4{stroke-dasharray:129 131;stroke-dashoffset:130;animation:KuHONxGN_draw 2000ms ease-in-out 250ms forwards;}.KuHONxGN_5{stroke-dasharray:189 191;stroke-dashoffset:190;animation:KuHONxGN_draw 2000ms ease-in-out 312ms forwards;}.KuHONxGN_6{stroke-dasharray:187 189;stroke-dashoffset:188;animation:KuHONxGN_draw 2000ms ease-in-out 375ms forwards;}.KuHONxGN_7{stroke-dasharray:218 220;stroke-dashoffset:219;animation:KuHONxGN_draw 2000ms ease-in-out 437ms forwards;}.KuHONxGN_8{stroke-dasharray:218 220;stroke-dashoffset:219;animation:KuHONxGN_draw 2000ms ease-in-out 500ms forwards;}.KuHONxGN_9{stroke-dasharray:189 191;stroke-dashoffset:190;animation:KuHONxGN_draw 2000ms ease-in-out 562ms forwards;}.KuHONxGN_10{stroke-dasharray:155 157;stroke-dashoffset:156;animation:KuHONxGN_draw 2000ms ease-in-out 625ms forwards;}.KuHONxGN_11{stroke-dasharray:189 191;stroke-dashoffset:190;animation:KuHONxGN_draw 2000ms ease-in-out 687ms forwards;}.KuHONxGN_12{stroke-dasharray:117 119;stroke-dashoffset:118;animation:KuHONxGN_draw 2000ms ease-in-out 750ms forwards;}.KuHONxGN_13{stroke-dasharray:207 209;stroke-dashoffset:208;animation:KuHONxGN_draw 2000ms ease-in-out 812ms forwards;}.KuHONxGN_14{stroke-dasharray:183 185;stroke-dashoffset:184;animation:KuHONxGN_draw 2000ms ease-in-out 875ms forwards;}.KuHONxGN_15{stroke-dasharray:189 191;stroke-dashoffset:190;animation:KuHONxGN_draw 2000ms ease-in-out 937ms forwards;}.KuHONxGN_16{stroke-dasharray:212 214;stroke-dashoffset:213;animation:KuHONxGN_draw 2000ms ease-in-out 1000ms forwards;}@keyframes KuHONxGN_draw{100%{stroke-dashoffset:0;}}@keyframes KuHONxGN_fade{0%{stroke-opacity:1;}94.44444444444444%{stroke-opacity:1;}100%{stroke-opacity:0;}}</style></svg>